<svg width="1125" height="256" viewBox="0 0 1125 256" fill="none" xmlns="http://www.w3.org/2000/svg">
<path d="M688.075 127.874C688.075 191.319 735.751 242.752 794.572 242.752C853.383 242.752 901.059 191.319 901.059 127.874C901.059 64.4204 853.383 12.9883 794.572 12.9883C735.751 12.9883 688.075 64.4204 688.075 127.874ZM725.046 127.874C725.046 86.4529 756.174 52.8814 794.572 52.8814C832.967 52.8814 864.096 86.4529 864.096 127.874C864.096 169.297 832.967 202.875 794.572 202.875C756.174 202.875 725.046 169.297 725.046 127.874ZM219.049 127.874C219.049 191.319 266.725 242.752 325.546 242.752C384.357 242.752 432.034 191.319 432.034 127.874C432.034 64.4204 384.357 12.9883 325.546 12.9883C266.725 12.9883 219.049 64.4204 219.049 127.874ZM256.02 127.874C256.02 86.4529 287.148 52.8814 325.546 52.8814C363.941 52.8814 395.069 86.4529 395.069 127.874C395.069 169.297 363.941 202.875 325.546 202.875C287.148 202.875 256.02 169.297 256.02 127.874ZM601.193 15.3894V155.131L511.423 15.3894H481.943V239.313H518.923V98.8897L609.124 239.313H638.165V15.3894H601.193ZM950.971 16.0621V239.987H987.949V140.336L1064.97 239.987H1113.01L1049.92 158.354C1077.18 148.975 1096.93 121.444 1096.93 88.9286C1096.93 48.7621 1066.78 16.1776 1029.57 16.0709V16.0621H950.971ZM987.949 55.9551H1029.12C1045.99 55.9551 1059.68 70.7185 1059.68 88.9286C1059.68 107.139 1045.98 121.909 1029.1 121.909H987.949V55.9551ZM132.166 16.0621V106.832H49.8958V16.0621H12.9175V239.987H49.8958V146.717H132.166V239.987H169.137V16.0621H132.166Z" fill="url(#paint0_linear_35_2)"/>
<defs>
<linearGradient id="paint0_linear_35_2" x1="483.774" y1="-102.848" x2="663.57" y2="347.263" gradientUnits="userSpaceOnUse">
<stop stop-color="#FF00D0"/>
<stop offset="0.25" stop-color="#4E73FF"/>
<stop offset="0.6" stop-color="#00B1FF"/>
<stop offset="1" stop-color="#00FFFF"/>
</linearGradient>
</defs>
</svg>
