<svg width="321" height="155" viewBox="0 0 321 155" fill="none" xmlns="http://www.w3.org/2000/svg">
<g clip-path="url(#clip0_47_3)">
<path d="M68.6521 102.216C68.6521 111.127 70.607 117.967 73.1641 122.106C76.5158 127.527 81.5145 129.828 86.611 129.828C93.1835 129.828 99.1968 128.196 110.785 112.169C120.07 99.323 131.007 81.2918 138.368 69.9874L150.832 50.8359C159.491 37.5356 169.512 22.7505 181.003 12.7285C190.387 4.54814 200.504 0.00390625 210.688 0.00390625C227.787 0.00390625 244.073 9.91246 256.538 28.496C270.179 48.8478 276.801 74.4837 276.801 100.938C276.801 116.665 273.701 128.221 268.426 137.35C263.33 146.179 253.397 155 236.689 155V129.824C250.996 129.824 254.565 116.677 254.565 101.632C254.565 80.1921 249.567 56.3997 238.554 39.3986C230.741 27.3397 220.613 19.9715 209.471 19.9715C197.42 19.9715 187.723 29.062 176.824 45.2654C171.029 53.8759 165.082 64.368 158.403 76.208L151.05 89.2327C136.283 115.424 132.541 121.386 125.156 131.227C112.214 148.462 101.161 154.996 86.611 154.996C69.35 154.996 58.4357 147.522 51.6756 136.258C46.1578 127.081 43.4473 115.038 43.4473 101.316L68.6521 102.216Z" fill="#0081FB"/>
<path d="M63.321 30.269C74.8766 12.4567 91.5531 0 110.68 0C121.757 0 132.771 3.2784 144.268 12.6679C156.845 22.9312 170.251 39.8412 186.977 67.6988L192.973 77.6933C207.451 101.811 215.687 114.219 220.508 120.07C226.707 127.584 231.048 129.824 236.688 129.824C250.996 129.824 254.565 116.677 254.565 101.632L276.8 100.934C276.8 116.662 273.701 128.217 268.426 137.347C263.33 146.175 253.397 154.997 236.688 154.997C226.301 154.997 217.099 152.741 206.923 143.14C199.103 135.772 189.954 122.683 182.918 110.916L161.99 75.9574C151.49 58.413 141.854 45.3316 136.283 39.4072C130.285 33.0362 122.576 25.3436 110.273 25.3436C100.317 25.3436 91.861 32.3304 84.7851 43.018L63.321 30.269Z" fill="url(#paint0_linear_47_3)"/>
<path d="M110.274 25.3435C100.317 25.3435 91.8611 32.3304 84.7853 43.0179C74.7789 58.1197 68.6571 80.6139 68.6571 102.216C68.6571 111.126 70.612 117.967 73.1691 122.105L51.6756 136.258C46.1578 127.08 43.4473 115.037 43.4473 101.316C43.4473 76.362 50.2964 50.3538 63.3211 30.269C74.8767 12.4567 91.5532 0 110.68 0L110.274 25.3435Z" fill="url(#paint1_linear_47_3)"/>
</g>
<defs>
<linearGradient id="paint0_linear_47_3" x1="94.0329" y1="73.4815" x2="254.708" y2="81.5964" gradientUnits="userSpaceOnUse">
<stop stop-color="#0064E1"/>
<stop offset="0.4" stop-color="#0064E1"/>
<stop offset="0.83" stop-color="#0073EE"/>
<stop offset="1" stop-color="#0082FB"/>
</linearGradient>
<linearGradient id="paint1_linear_47_3" x1="77.0633" y1="112.798" x2="77.0633" y2="53.5589" gradientUnits="userSpaceOnUse">
<stop stop-color="#0082FB"/>
<stop offset="1" stop-color="#0064E0"/>
</linearGradient>
<clipPath id="clip0_47_3">
<rect width="320.248" height="155" fill="white"/>
</clipPath>
</defs>
</svg>
