<svg width="896" height="534" viewBox="0 0 896 534" fill="none" xmlns="http://www.w3.org/2000/svg">
<path d="M895.445 533.667H0.555176V132.598C0.555176 59.8741 60.0959 0.333374 132.859 0.333374H895.445V533.667Z" fill="#ED1C24"/>
<path d="M132.859 229.066H203.557V355.707H266.787V229.066H337.407V177.942H132.859V229.066ZM461.333 319.092C446.643 319.092 435.615 314.844 426.25 306.129C417.093 297.595 410.521 284.567 410.521 266.825V264.162C410.521 246.51 417.093 233.275 426.25 224.806C435.615 216.025 446.721 211.973 461.333 211.973C495.845 211.973 503.222 232.521 505.43 245.913H561.542C560.165 218.87 547.267 199.867 529.07 187.216C510.938 174.617 489.883 168.188 461.944 168.188C427.588 168.188 403.182 175.838 383.115 192.84C362.904 210.193 352.149 237.509 352.149 264.811V266.201C352.149 296.049 361.501 318.429 382.231 337.263C401.611 354.876 429.874 362.929 461.281 362.825C489.116 362.825 512.99 356.292 529.55 343.861C547.774 330.08 560.23 310.74 561.737 285.23H505.755C504.209 295.946 497.455 319.092 461.333 319.092ZM656.438 306.947V177.929H595.56V355.629H756.296V306.947H656.438Z" fill="white"/>
</svg>
