<svg width="800" height="800" viewBox="0 0 800 800" fill="none" xmlns="http://www.w3.org/2000/svg">
<g clip-path="url(#clip0_2_11)">
<path d="M646.138 136.661C587.565 74.0031 503.344 67 400.425 67C297.376 67 213.028 74.0838 154.479 136.911C95.9381 199.712 90 290.145 90 400.679C90 511.232 95.9381 601.692 154.503 664.515C213.048 727.352 297.387 733.711 400.425 733.711C503.464 733.711 587.788 727.352 646.334 664.515C704.895 601.681 710.85 511.232 710.85 400.679C710.85 290.003 704.831 199.472 646.138 136.661Z" fill="#FF6900"/>
<path d="M580.56 273.53C582.693 273.53 584.468 275.376 584.468 277.647V524.259C584.468 526.492 582.693 528.346 580.56 528.346H530.242C528.083 528.346 526.328 526.492 526.328 524.259V277.647C526.328 275.377 528.081 273.53 530.242 273.53H580.56ZM362.199 273.53C400.156 273.53 439.845 275.399 459.419 296.434C478.665 317.135 480.749 358.351 480.829 398.376V524.258C480.829 526.491 479.076 528.345 476.926 528.345H426.615C424.46 528.345 422.7 526.491 422.7 524.258V396.21C422.646 373.856 421.449 350.882 410.714 339.316C401.474 329.366 384.233 327.087 366.303 326.615H275.104C272.965 326.615 271.214 328.462 271.214 330.698V524.259C271.214 526.492 269.441 528.346 267.289 528.346H216.947C214.796 528.346 213.065 526.492 213.065 524.259V277.647C213.065 275.377 214.794 273.53 216.947 273.53H362.199ZM373.46 371.749C375.601 371.749 377.341 373.589 377.341 375.842V524.259C377.341 526.492 375.6 528.346 373.46 528.346H320.61C318.437 528.346 316.696 526.492 316.696 524.259V375.842C316.696 373.589 318.437 371.749 320.61 371.749H373.46Z" fill="white"/>
</g>
<defs>
<clipPath id="clip0_2_11">
<rect width="620.85" height="666.71" fill="white" transform="translate(90 67)"/>
</clipPath>
</defs>
</svg>
