<svg width="393" height="590" viewBox="0 0 393 590" fill="none" xmlns="http://www.w3.org/2000/svg">
<path fill-rule="evenodd" clip-rule="evenodd" d="M256.371 80.1906C259.008 60.7006 264.974 20.781 267.743 17.0222C271.203 12.3237 220.773 -5.42611 154.521 3.4488C111.836 17.1962 22.8076 67.9746 8.17283 161.109C6.35997 179.207 4.81079 220.31 13.117 239.939C7.51361 256.819 -2.50661 299.557 2.23981 335.475C4.87671 348.526 14.6003 379.64 32.3993 399.687C25.9719 412.738 13.117 444.793 13.117 468.598C11.7986 482.52 12.8204 516.836 27.4552 542.73C28.1181 543.707 28.8293 544.784 29.5932 545.94L29.5969 545.946C39.8491 561.463 59.5794 591.327 99.1458 589.005C141.299 586.532 155.074 560.468 173.808 525.022L174.297 524.095C173.968 517.309 170.639 511.824 157.982 530.201C148.752 544.47 124.163 571.652 99.6403 566.222C84.3133 564.134 52.6705 548.681 48.7151 503.576C46.9023 487.044 45.9464 447.403 56.6258 421.091C62.3941 423.876 79.0724 427.774 99.6403 421.091C107.551 418.655 124.757 413.156 130.294 410.65C127.163 428.748 116.648 467.032 99.6403 475.385C95.0257 478.865 79.9624 486.139 56.6258 487.392V503.576C67.5031 501.488 93.8061 497.416 112.001 497.833C143.479 499.747 208.808 503.576 218.301 503.576C238.242 503.054 285.739 495.327 316.196 468.598C327.567 459.375 353.178 434.874 364.649 410.65C371.241 394.467 382.052 355.208 372.559 327.644C367.45 310.068 345.663 273.664 299.385 268.652C302.713 267.355 306.756 266.088 311.327 264.655C325.771 260.128 345.495 253.945 364.649 239.939C388.725 222.332 390.392 185.516 391.365 164.047L391.365 164.044C391.411 163.03 391.455 162.051 391.5 161.109C392.5 140.227 369.098 114.751 331.522 96.3743C320.316 92.1978 289.596 83.1141 256.371 80.1906ZM181.219 414.305C174.891 438.528 161.113 462.334 155.015 471.208C193.778 487.079 235.111 477.821 250.932 471.208C270.313 464.944 286.695 445.976 292.463 437.275C296.023 432.263 305.483 413.957 309.768 405.43C314.119 394.571 315.866 371.67 316.196 361.577C316.196 345.289 308.285 327.296 304.329 320.335C294.837 308.223 276.312 299.627 268.237 296.843C246.087 290.578 221.102 292.492 211.379 294.232C209.006 298.409 206.435 313.374 205.446 320.335C209.401 322.006 211.049 324.164 211.379 325.034C209.401 328.792 204.951 348.874 202.974 358.445C199.809 373.48 200.007 388.028 200.502 393.423H189.13V385.592L181.219 414.305ZM170.342 151.712C190.778 148.754 233.232 142.315 239.561 140.227L249.943 137.616L236.594 185.123C240.714 184.079 247.076 185.437 239.561 199.219H233.628L216.817 271.262C232.804 271.436 269.522 267.921 288.508 252.468C291.231 249.927 295.168 246.681 299.631 243.002L299.632 243.001C313.81 231.313 333.293 215.253 336 203.5C338.307 190.449 337.06 163.824 331.522 151.712C325.754 139.705 299.089 109.53 256.371 103.683C237.253 103.335 192.69 105.771 167.376 118.3C151.554 125.435 117.143 142.524 106.068 153.8C97.0034 160.587 74.0294 180.738 54.6482 207.05L48.2207 216.447C49.0448 228.976 56.0325 256.958 77.3914 268.652C85.9613 273.524 110.5 283.5 130.294 281.181C144.268 279.544 148.615 277.096 154.833 273.594C157.423 272.135 160.338 270.494 164.409 268.652L179.242 216.447C182.043 209.486 178.846 196.713 143.643 201.307C143.643 196.608 145.423 187.42 152.543 188.256H185.175C186.658 182.339 186.559 170.401 174.297 169.984H164.409C165.068 164.085 167.178 152.173 170.342 151.712ZM211.873 20.6765C239.165 28.6117 244.999 65.0511 244.505 82.2788L199.018 88.0214C176.473 92.6155 143.808 106.641 130.294 113.08C105.375 120.598 65.1958 160.065 48.2207 178.859C47.8252 160.482 54.428 136.645 70.964 101.073C87.5 65.5 127.328 38.0783 143.643 27.4632C169.353 10.7575 199.842 15.9781 211.873 20.6765ZM72.4472 381.937C74.0953 384.374 76.897 390.603 74.9193 396.033C79.6987 401.601 92.7184 410.859 106.562 403.342C112.825 399.165 127.031 387.367 133.755 373.585C140.842 360.101 154.521 330.575 152.543 320.335C143.149 319.813 120.307 322.945 104.09 339.651C94.8609 349.048 75.6115 370.661 72.4472 381.937ZM25.4775 332.864C19.94 314.488 24.4886 282.399 27.4552 268.652C34.9703 283.687 60.5812 295.799 72.4472 299.975C87.082 303.316 104.09 303.107 118.923 301.541C133.755 299.975 153.202 292.492 161.443 289.012C159.069 303.629 156.169 307.284 155.015 307.284C140.776 307.701 126.339 310.938 120.9 312.504C113.385 312.504 90.7407 327.818 80.3579 335.475L51.1872 365.232C37.3435 358.967 28.2792 341.043 25.4775 332.864Z" fill="black"/>
<path d="M174.297 524.095C173.968 517.309 170.639 511.824 157.982 530.201C148.752 544.47 124.163 571.652 99.6403 566.222C84.3133 564.134 52.6705 548.681 48.7151 503.576C46.9023 487.044 45.9464 447.403 56.6258 421.091C62.3941 423.876 79.0724 427.774 99.6403 421.091C107.551 418.655 124.757 413.156 130.294 410.65C127.163 428.748 116.648 467.032 99.6403 475.385C95.0257 478.865 79.9624 486.139 56.6258 487.392V503.576C67.5031 501.488 93.8061 497.416 112.001 497.833C143.479 499.747 208.808 503.576 218.301 503.576C238.242 503.054 285.739 495.327 316.196 468.598C327.567 459.375 353.178 434.874 364.649 410.65C371.241 394.467 382.052 355.208 372.559 327.644C367.45 310.068 345.663 273.664 299.385 268.652C302.713 267.355 306.756 266.088 311.327 264.655C325.771 260.128 345.495 253.945 364.649 239.939C388.725 222.332 390.392 185.516 391.365 164.047M174.297 524.095L173.808 525.022M174.297 524.095C174.134 524.405 173.97 524.714 173.808 525.022M173.808 525.022C155.074 560.468 141.299 586.532 99.1458 589.005C59.5794 591.327 39.8491 561.463 29.5969 545.946M29.5969 545.946L29.5932 545.94M29.5969 545.946C29.5957 545.944 29.5944 545.942 29.5932 545.94M391.365 164.047L391.365 164.044M391.365 164.047C391.365 164.046 391.365 164.045 391.365 164.044M391.365 164.044C391.411 163.03 391.455 162.051 391.5 161.109C392.5 140.227 369.098 114.751 331.522 96.3743C320.316 92.1978 289.596 83.1141 256.371 80.1906C259.008 60.7006 264.974 20.781 267.743 17.0222C271.203 12.3237 220.773 -5.42611 154.521 3.4488C111.836 17.1962 22.8076 67.9746 8.17283 161.109C6.35997 179.207 4.81079 220.31 13.117 239.939C7.51361 256.819 -2.50661 299.557 2.23981 335.475C4.87671 348.526 14.6003 379.64 32.3993 399.687C25.9719 412.738 13.117 444.793 13.117 468.598C11.7986 482.52 12.8204 516.836 27.4552 542.73C28.1181 543.707 28.8293 544.784 29.5932 545.94M244.505 82.2788C244.999 65.0511 239.165 28.6117 211.873 20.6765C199.842 15.9781 169.353 10.7575 143.643 27.4632C127.328 38.0783 87.5 65.5 70.964 101.073C54.428 136.645 47.8252 160.482 48.2207 178.859C65.1958 160.065 105.375 120.598 130.294 113.08C143.808 106.641 176.473 92.6155 199.018 88.0214L244.505 82.2788ZM27.4552 268.652C24.4886 282.399 19.94 314.488 25.4775 332.864C28.2792 341.043 37.3435 358.967 51.1872 365.232L80.3579 335.475C90.7407 327.818 113.385 312.504 120.9 312.504C126.339 310.938 140.776 307.701 155.015 307.284C156.169 307.284 159.069 303.629 161.443 289.012C153.202 292.492 133.755 299.975 118.923 301.541C104.09 303.107 87.082 303.316 72.4472 299.975C60.5812 295.799 34.9703 283.687 27.4552 268.652ZM72.4472 381.937C74.0953 384.374 76.897 390.603 74.9193 396.033C79.6987 401.601 92.7184 410.859 106.562 403.342C112.825 399.165 127.031 387.367 133.755 373.585C140.842 360.101 154.521 330.575 152.543 320.335C143.149 319.813 120.307 322.945 104.09 339.651C94.8609 349.048 75.6115 370.661 72.4472 381.937ZM155.015 471.208C161.113 462.334 174.891 438.528 181.219 414.305L189.13 385.592V393.423H200.502C200.007 388.028 199.809 373.48 202.974 358.445C204.951 348.874 209.401 328.792 211.379 325.034C211.049 324.164 209.401 322.006 205.446 320.335C206.435 313.374 209.006 298.409 211.379 294.232C221.102 292.492 246.087 290.578 268.237 296.843C276.312 299.627 294.837 308.223 304.329 320.335C308.285 327.296 316.196 345.289 316.196 361.577C315.866 371.67 314.119 394.571 309.768 405.43C305.483 413.957 296.023 432.263 292.463 437.275C286.695 445.976 270.313 464.944 250.932 471.208C235.111 477.821 193.778 487.079 155.015 471.208ZM170.342 151.712C190.778 148.754 233.232 142.315 239.561 140.227L249.943 137.616L236.594 185.123C240.714 184.079 247.076 185.437 239.561 199.219H233.628L216.817 271.262C232.804 271.436 269.522 267.921 288.508 252.468C291.231 249.927 295.168 246.681 299.631 243.002L299.632 243.001C313.81 231.313 333.293 215.253 336 203.5C338.307 190.449 337.06 163.824 331.522 151.712C325.754 139.705 299.089 109.53 256.371 103.683C237.253 103.335 192.69 105.771 167.376 118.3C151.554 125.435 117.143 142.524 106.068 153.8C97.0034 160.587 74.0294 180.738 54.6482 207.05L48.2207 216.447C49.0448 228.976 56.0325 256.958 77.3914 268.652C85.9613 273.524 110.5 283.5 130.294 281.181C144.268 279.544 148.615 277.096 154.833 273.594C157.423 272.135 160.338 270.494 164.409 268.652L179.242 216.447C182.043 209.486 178.846 196.713 143.643 201.307C143.643 196.608 145.423 187.42 152.543 188.256H185.175C186.658 182.339 186.559 170.401 174.297 169.984H164.409C165.068 164.085 167.178 152.173 170.342 151.712Z" stroke="black"/>
</svg>
