<svg width="629" height="789" viewBox="0 0 629 789" fill="none" xmlns="http://www.w3.org/2000/svg">
<rect width="629" height="789" fill="black"/>
<path fill-rule="evenodd" clip-rule="evenodd" d="M366.371 151.191C369.008 131.701 374.974 91.781 377.743 88.0222C381.203 83.3237 330.773 65.5739 264.521 74.4488C221.836 88.1962 132.808 138.975 118.173 232.109C116.36 250.207 114.811 291.31 123.117 310.939C117.514 327.819 107.493 370.557 112.24 406.475C114.877 419.526 124.6 450.64 142.399 470.687C135.972 483.738 123.117 515.793 123.117 539.598C121.799 553.52 122.82 587.836 137.455 613.73C138.118 614.707 138.829 615.784 139.593 616.94L139.597 616.946C149.849 632.463 169.579 662.327 209.146 660.005C251.299 657.532 265.074 631.468 283.808 596.022L284.297 595.095C283.968 588.309 280.639 582.824 267.982 601.201C258.752 615.47 234.163 642.652 209.64 637.222C194.313 635.134 162.67 619.681 158.715 574.576C156.902 558.044 155.946 518.403 166.626 492.091C172.394 494.876 189.072 498.774 209.64 492.091C217.551 489.655 234.757 484.156 240.294 481.65C237.163 499.748 226.648 538.032 209.64 546.385C205.026 549.865 189.962 557.139 166.626 558.392V574.576C177.503 572.488 203.806 568.416 222.001 568.833C253.479 570.747 318.808 574.576 328.301 574.576C348.242 574.054 395.739 566.327 426.196 539.598C437.567 530.375 463.178 505.874 474.649 481.65C481.241 465.467 492.052 426.208 482.559 398.644C477.45 381.068 455.663 344.664 409.385 339.652C412.713 338.355 416.756 337.088 421.327 335.655C435.771 331.128 455.495 324.945 474.649 310.939C498.725 293.332 500.392 256.516 501.365 235.047L501.365 235.044C501.411 234.03 501.455 233.051 501.5 232.109C502.5 211.227 479.098 185.751 441.522 167.374C430.316 163.198 399.596 154.114 366.371 151.191ZM321.873 91.6765C349.165 99.6117 354.999 136.051 354.505 153.279L309.018 159.021C286.473 163.615 253.808 177.641 240.294 184.08C215.375 191.598 175.196 231.065 158.221 249.859C157.825 231.482 164.428 207.645 180.964 172.073C197.5 136.5 237.328 109.078 253.643 98.4632C279.353 81.7575 309.842 86.9781 321.873 91.6765ZM280.342 222.712C300.778 219.754 343.232 213.315 349.561 211.227L359.943 208.616L346.594 256.123C350.714 255.079 357.076 256.437 349.561 270.219H343.628L326.817 342.262C342.804 342.436 379.522 338.921 398.508 323.468C401.231 320.927 405.168 317.681 409.631 314.002L409.632 314.001C423.81 302.313 443.293 286.253 446 274.5C448.307 261.449 447.06 234.824 441.522 222.712C435.754 210.705 409.089 180.53 366.371 174.683C347.253 174.335 302.69 176.771 277.376 189.3C261.554 196.435 227.143 213.524 216.068 224.8C207.003 231.587 184.029 251.738 164.648 278.05L158.221 287.447C159.045 299.976 166.033 327.958 187.391 339.652C195.961 344.524 220.5 354.5 240.294 352.181C254.268 350.544 258.615 348.096 264.833 344.594C267.423 343.135 270.338 341.494 274.409 339.652L289.242 287.447C292.043 280.486 288.846 267.713 253.643 272.307C253.643 267.608 255.423 258.42 262.543 259.256H295.175C296.658 253.339 296.559 241.401 284.297 240.984H274.409C275.068 235.085 277.178 223.173 280.342 222.712ZM291.219 485.305C284.891 509.528 271.113 533.334 265.015 542.208C303.778 558.079 345.111 548.821 360.932 542.208C380.313 535.944 396.695 516.976 402.463 508.275C406.023 503.263 415.483 484.957 419.768 476.43C424.119 465.571 425.866 442.67 426.196 432.577C426.196 416.289 418.285 398.296 414.329 391.335C404.837 379.223 386.312 370.627 378.237 367.843C356.087 361.578 331.102 363.492 321.379 365.232C319.006 369.409 316.435 384.374 315.446 391.335C319.401 393.006 321.049 395.164 321.379 396.034C319.401 399.792 314.951 419.874 312.974 429.445C309.809 444.48 310.007 459.028 310.502 464.423H299.13V456.592L291.219 485.305ZM137.455 339.652C134.489 353.399 129.94 385.488 135.477 403.864C138.279 412.043 147.344 429.967 161.187 436.232L190.358 406.475C200.741 398.818 223.385 383.504 230.9 383.504C236.339 381.938 250.776 378.701 265.015 378.284C266.169 378.284 269.069 374.629 271.443 360.012C263.202 363.492 243.755 370.975 228.923 372.541C214.09 374.107 197.082 374.316 182.447 370.975C170.581 366.799 144.97 354.687 137.455 339.652ZM184.919 467.033C186.897 461.603 184.095 455.374 182.447 452.937C185.612 441.661 204.861 420.048 214.09 410.651C230.307 393.945 253.149 390.813 262.543 391.335C264.521 401.575 250.842 431.101 243.755 444.585C237.031 458.367 222.825 470.165 216.562 474.342C202.718 481.859 189.699 472.601 184.919 467.033Z" fill="url(#paint0_linear_12_6)"/>
<defs>
<linearGradient id="paint0_linear_12_6" x1="318.5" y1="177.5" x2="203" y2="654.5" gradientUnits="userSpaceOnUse">
<stop stop-color="#C99742"/>
<stop offset="0.515" stop-color="#EEE375"/>
<stop offset="1" stop-color="#845819"/>
</linearGradient>
</defs>
</svg>
