<svg width="629" height="789" viewBox="0 0 629 789" fill="none" xmlns="http://www.w3.org/2000/svg">
<rect width="629" height="789" fill="black"/>
<mask id="path-1-inside-1_12_5" fill="white">
<path fill-rule="evenodd" clip-rule="evenodd" d="M366.371 151.191C369.008 131.701 374.974 91.781 377.743 88.0222C381.203 83.3237 330.773 65.5739 264.521 74.4488C221.836 88.1962 132.808 138.975 118.173 232.109C116.36 250.207 114.811 291.31 123.117 310.939C117.514 327.819 107.493 370.557 112.24 406.475C114.877 419.526 124.6 450.64 142.399 470.687C135.972 483.738 123.117 515.793 123.117 539.598C121.799 553.52 122.82 587.836 137.455 613.73C138.118 614.707 138.829 615.784 139.593 616.94L139.597 616.946C149.849 632.463 169.579 662.327 209.146 660.005C251.299 657.532 265.074 631.468 283.808 596.022L284.297 595.095C283.968 588.309 280.639 582.824 267.982 601.201C258.752 615.47 234.163 642.652 209.64 637.222C194.313 635.134 162.67 619.681 158.715 574.576C156.902 558.044 155.946 518.403 166.626 492.091C172.394 494.876 189.072 498.774 209.64 492.091C217.551 489.655 234.757 484.156 240.294 481.65C237.163 499.748 226.648 538.032 209.64 546.385C205.026 549.865 189.962 557.139 166.626 558.392V574.576C177.503 572.488 203.806 568.416 222.001 568.833C253.479 570.747 318.808 574.576 328.301 574.576C348.242 574.054 395.739 566.327 426.196 539.598C437.567 530.375 463.178 505.874 474.649 481.65C481.241 465.467 492.052 426.208 482.559 398.644C477.45 381.068 455.663 344.664 409.385 339.652C412.713 338.355 416.756 337.088 421.327 335.655C435.771 331.128 455.495 324.945 474.649 310.939C498.725 293.332 500.392 256.516 501.365 235.047L501.365 235.044C501.411 234.03 501.455 233.051 501.5 232.109C502.5 211.227 479.098 185.751 441.522 167.374C430.316 163.198 399.596 154.114 366.371 151.191ZM321.873 91.6765C349.165 99.6117 354.999 136.051 354.505 153.279L309.018 159.021C286.473 163.615 253.808 177.641 240.294 184.08C215.375 191.598 175.196 231.065 158.221 249.859C157.825 231.482 164.428 207.645 180.964 172.073C197.5 136.5 237.328 109.078 253.643 98.4632C279.353 81.7575 309.842 86.9781 321.873 91.6765ZM280.342 222.712C300.778 219.754 343.232 213.315 349.561 211.227L359.943 208.616L346.594 256.123C350.714 255.079 357.076 256.437 349.561 270.219H343.628L326.817 342.262C342.804 342.436 379.522 338.921 398.508 323.468C401.231 320.927 405.168 317.681 409.631 314.002L409.632 314.001C423.81 302.313 443.293 286.253 446 274.5C448.307 261.449 447.06 234.824 441.522 222.712C435.754 210.705 409.089 180.53 366.371 174.683C347.253 174.335 302.69 176.771 277.376 189.3C261.554 196.435 227.143 213.524 216.068 224.8C207.003 231.587 184.029 251.738 164.648 278.05L158.221 287.447C159.045 299.976 166.033 327.958 187.391 339.652C195.961 344.524 220.5 354.5 240.294 352.181C254.268 350.544 258.615 348.096 264.833 344.594C267.423 343.135 270.338 341.494 274.409 339.652L289.242 287.447C292.043 280.486 288.846 267.713 253.643 272.307C253.643 267.608 255.423 258.42 262.543 259.256H295.175C296.658 253.339 296.559 241.401 284.297 240.984H274.409C275.068 235.085 277.178 223.173 280.342 222.712ZM291.219 485.305C284.891 509.528 271.113 533.334 265.015 542.208C303.778 558.079 345.111 548.821 360.932 542.208C380.313 535.944 396.695 516.976 402.463 508.275C406.023 503.263 415.483 484.957 419.768 476.43C424.119 465.571 425.866 442.67 426.196 432.577C426.196 416.289 418.285 398.296 414.329 391.335C404.837 379.223 386.312 370.627 378.237 367.843C356.087 361.578 331.102 363.492 321.379 365.232C319.006 369.409 316.435 384.374 315.446 391.335C319.401 393.006 321.049 395.164 321.379 396.034C319.401 399.792 314.951 419.874 312.974 429.445C309.809 444.48 310.007 459.028 310.502 464.423H299.13V456.592L291.219 485.305ZM137.455 339.652C134.489 353.399 129.94 385.488 135.477 403.864C138.279 412.043 147.344 429.967 161.187 436.232L190.358 406.475C200.741 398.818 223.385 383.504 230.9 383.504C236.339 381.938 250.776 378.701 265.015 378.284C266.169 378.284 269.069 374.629 271.443 360.012C263.202 363.492 243.755 370.975 228.923 372.541C214.09 374.107 197.082 374.316 182.447 370.975C170.581 366.799 144.97 354.687 137.455 339.652ZM184.919 467.033C186.897 461.603 184.095 455.374 182.447 452.937C185.612 441.661 204.861 420.048 214.09 410.651C230.307 393.945 253.149 390.813 262.543 391.335C264.521 401.575 250.842 431.101 243.755 444.585C237.031 458.367 222.825 470.165 216.562 474.342C202.718 481.859 189.699 472.601 184.919 467.033Z"/>
</mask>
<path fill-rule="evenodd" clip-rule="evenodd" d="M366.371 151.191C369.008 131.701 374.974 91.781 377.743 88.0222C381.203 83.3237 330.773 65.5739 264.521 74.4488C221.836 88.1962 132.808 138.975 118.173 232.109C116.36 250.207 114.811 291.31 123.117 310.939C117.514 327.819 107.493 370.557 112.24 406.475C114.877 419.526 124.6 450.64 142.399 470.687C135.972 483.738 123.117 515.793 123.117 539.598C121.799 553.52 122.82 587.836 137.455 613.73C138.118 614.707 138.829 615.784 139.593 616.94L139.597 616.946C149.849 632.463 169.579 662.327 209.146 660.005C251.299 657.532 265.074 631.468 283.808 596.022L284.297 595.095C283.968 588.309 280.639 582.824 267.982 601.201C258.752 615.47 234.163 642.652 209.64 637.222C194.313 635.134 162.67 619.681 158.715 574.576C156.902 558.044 155.946 518.403 166.626 492.091C172.394 494.876 189.072 498.774 209.64 492.091C217.551 489.655 234.757 484.156 240.294 481.65C237.163 499.748 226.648 538.032 209.64 546.385C205.026 549.865 189.962 557.139 166.626 558.392V574.576C177.503 572.488 203.806 568.416 222.001 568.833C253.479 570.747 318.808 574.576 328.301 574.576C348.242 574.054 395.739 566.327 426.196 539.598C437.567 530.375 463.178 505.874 474.649 481.65C481.241 465.467 492.052 426.208 482.559 398.644C477.45 381.068 455.663 344.664 409.385 339.652C412.713 338.355 416.756 337.088 421.327 335.655C435.771 331.128 455.495 324.945 474.649 310.939C498.725 293.332 500.392 256.516 501.365 235.047L501.365 235.044C501.411 234.03 501.455 233.051 501.5 232.109C502.5 211.227 479.098 185.751 441.522 167.374C430.316 163.198 399.596 154.114 366.371 151.191ZM321.873 91.6765C349.165 99.6117 354.999 136.051 354.505 153.279L309.018 159.021C286.473 163.615 253.808 177.641 240.294 184.08C215.375 191.598 175.196 231.065 158.221 249.859C157.825 231.482 164.428 207.645 180.964 172.073C197.5 136.5 237.328 109.078 253.643 98.4632C279.353 81.7575 309.842 86.9781 321.873 91.6765ZM280.342 222.712C300.778 219.754 343.232 213.315 349.561 211.227L359.943 208.616L346.594 256.123C350.714 255.079 357.076 256.437 349.561 270.219H343.628L326.817 342.262C342.804 342.436 379.522 338.921 398.508 323.468C401.231 320.927 405.168 317.681 409.631 314.002L409.632 314.001C423.81 302.313 443.293 286.253 446 274.5C448.307 261.449 447.06 234.824 441.522 222.712C435.754 210.705 409.089 180.53 366.371 174.683C347.253 174.335 302.69 176.771 277.376 189.3C261.554 196.435 227.143 213.524 216.068 224.8C207.003 231.587 184.029 251.738 164.648 278.05L158.221 287.447C159.045 299.976 166.033 327.958 187.391 339.652C195.961 344.524 220.5 354.5 240.294 352.181C254.268 350.544 258.615 348.096 264.833 344.594C267.423 343.135 270.338 341.494 274.409 339.652L289.242 287.447C292.043 280.486 288.846 267.713 253.643 272.307C253.643 267.608 255.423 258.42 262.543 259.256H295.175C296.658 253.339 296.559 241.401 284.297 240.984H274.409C275.068 235.085 277.178 223.173 280.342 222.712ZM291.219 485.305C284.891 509.528 271.113 533.334 265.015 542.208C303.778 558.079 345.111 548.821 360.932 542.208C380.313 535.944 396.695 516.976 402.463 508.275C406.023 503.263 415.483 484.957 419.768 476.43C424.119 465.571 425.866 442.67 426.196 432.577C426.196 416.289 418.285 398.296 414.329 391.335C404.837 379.223 386.312 370.627 378.237 367.843C356.087 361.578 331.102 363.492 321.379 365.232C319.006 369.409 316.435 384.374 315.446 391.335C319.401 393.006 321.049 395.164 321.379 396.034C319.401 399.792 314.951 419.874 312.974 429.445C309.809 444.48 310.007 459.028 310.502 464.423H299.13V456.592L291.219 485.305ZM137.455 339.652C134.489 353.399 129.94 385.488 135.477 403.864C138.279 412.043 147.344 429.967 161.187 436.232L190.358 406.475C200.741 398.818 223.385 383.504 230.9 383.504C236.339 381.938 250.776 378.701 265.015 378.284C266.169 378.284 269.069 374.629 271.443 360.012C263.202 363.492 243.755 370.975 228.923 372.541C214.09 374.107 197.082 374.316 182.447 370.975C170.581 366.799 144.97 354.687 137.455 339.652ZM184.919 467.033C186.897 461.603 184.095 455.374 182.447 452.937C185.612 441.661 204.861 420.048 214.09 410.651C230.307 393.945 253.149 390.813 262.543 391.335C264.521 401.575 250.842 431.101 243.755 444.585C237.031 458.367 222.825 470.165 216.562 474.342C202.718 481.859 189.699 472.601 184.919 467.033Z" fill="white"/>
<path d="M284.25 596.256C284.413 595.948 284.576 595.639 284.739 595.329L283.855 594.862C283.692 595.171 283.528 595.48 283.365 595.789L284.25 596.256ZM139.176 617.216C139.176 617.216 139.177 617.217 139.177 617.218C139.178 617.219 139.179 617.22 139.18 617.221L140.014 616.67C140.014 616.669 140.013 616.669 140.013 616.668C140.012 616.667 140.011 616.666 140.01 616.664L139.176 617.216ZM501.864 235.07C501.864 235.074 501.864 235.078 501.864 235.077C501.864 235.077 501.864 235.075 501.864 235.074C501.864 235.072 501.864 235.07 501.864 235.067L500.865 235.022C500.865 235.017 500.866 235.014 500.866 235.015C500.866 235.015 500.865 235.016 500.865 235.018C500.865 235.019 500.865 235.022 500.865 235.025L501.864 235.07ZM366.371 151.191L365.38 151.057L365.239 152.095L366.283 152.187L366.371 151.191ZM377.743 88.0222L376.937 87.4291L377.743 88.0222ZM264.521 74.4488L264.388 73.4577L264.299 73.4695L264.214 73.4969L264.521 74.4488ZM118.173 232.109L117.185 231.954L117.181 231.981L117.178 232.009L118.173 232.109ZM123.117 310.939L124.066 311.254L124.185 310.896L124.038 310.549L123.117 310.939ZM112.24 406.475L111.248 406.606L111.253 406.639L111.26 406.673L112.24 406.475ZM142.399 470.687L143.296 471.129L143.593 470.526L143.147 470.023L142.399 470.687ZM123.117 539.598L124.113 539.692L124.117 539.645V539.598H123.117ZM137.455 613.73L136.585 614.222L136.605 614.257L136.628 614.291L137.455 613.73ZM209.146 660.005L209.204 661.003L209.204 661.003L209.146 660.005ZM284.297 595.095L285.182 595.563L285.31 595.32L285.296 595.047L284.297 595.095ZM267.982 601.201L267.158 600.633L267.15 600.645L267.142 600.657L267.982 601.201ZM209.64 637.222L209.856 636.246L209.816 636.237L209.775 636.231L209.64 637.222ZM158.715 574.576L159.711 574.488L159.71 574.478L159.709 574.467L158.715 574.576ZM166.626 492.091L167.061 491.191L166.1 490.727L165.699 491.715L166.626 492.091ZM209.64 492.091L209.346 491.136L209.339 491.138L209.331 491.14L209.64 492.091ZM240.294 481.65L241.28 481.821L241.601 479.961L239.882 480.739L240.294 481.65ZM209.64 546.385L209.199 545.487L209.114 545.529L209.038 545.587L209.64 546.385ZM166.626 558.392L166.572 557.394L165.626 557.444V558.392H166.626ZM166.626 574.576H165.626V575.786L166.814 575.558L166.626 574.576ZM222.001 568.833L222.061 567.835L222.043 567.834L222.024 567.833L222.001 568.833ZM328.301 574.576V575.576H328.314L328.327 575.575L328.301 574.576ZM426.196 539.598L425.566 538.822L425.551 538.834L425.536 538.847L426.196 539.598ZM474.649 481.65L475.552 482.078L475.564 482.053L475.575 482.028L474.649 481.65ZM482.559 398.644L481.599 398.923L481.606 398.946L481.614 398.969L482.559 398.644ZM409.385 339.652L409.022 338.72L409.278 340.646L409.385 339.652ZM474.649 310.939L475.239 311.746L475.239 311.746L474.649 310.939ZM501.5 232.109L500.501 232.061L500.501 232.061L501.5 232.109ZM441.522 167.374L441.962 166.476L441.918 166.454L441.872 166.437L441.522 167.374ZM354.505 153.279L354.63 154.271L355.48 154.164L355.504 153.308L354.505 153.279ZM321.873 91.6765L321.509 92.608L321.551 92.6243L321.594 92.6368L321.873 91.6765ZM253.643 98.4632L253.099 97.6247L253.098 97.625L253.643 98.4632ZM158.221 249.859L157.221 249.88L157.275 252.397L158.963 250.529L158.221 249.859ZM240.294 184.08L240.583 185.037L240.656 185.015L240.724 184.983L240.294 184.08ZM309.018 159.021L308.893 158.029L308.856 158.034L308.819 158.042L309.018 159.021ZM137.455 339.652L138.35 339.205L137.078 336.66L136.478 339.441L137.455 339.652ZM135.477 403.864L134.52 404.153L134.525 404.171L134.531 404.188L135.477 403.864ZM161.187 436.232L160.775 437.143L161.412 437.431L161.901 436.932L161.187 436.232ZM190.358 406.475L189.764 405.67L189.7 405.717L189.644 405.775L190.358 406.475ZM230.9 383.504V384.504H231.041L231.177 384.465L230.9 383.504ZM265.015 378.284V377.284H265L264.986 377.284L265.015 378.284ZM271.443 360.012L272.43 360.172L272.719 358.387L271.053 359.091L271.443 360.012ZM182.447 370.975L182.115 371.918L182.169 371.937L182.225 371.95L182.447 370.975ZM182.447 452.937L181.484 452.667L181.359 453.114L181.619 453.498L182.447 452.937ZM184.919 467.033L183.98 466.691L183.78 467.24L184.16 467.684L184.919 467.033ZM216.562 474.342L217.039 475.22L217.079 475.199L217.117 475.174L216.562 474.342ZM243.755 444.585L242.87 444.119L242.863 444.133L242.856 444.146L243.755 444.585ZM262.543 391.335L263.525 391.145L263.377 390.38L262.599 390.337L262.543 391.335ZM214.09 410.651L214.803 411.352L214.808 411.348L214.09 410.651ZM265.015 542.208L264.191 541.642L263.489 542.664L264.636 543.134L265.015 542.208ZM291.219 485.305L290.255 485.039L290.252 485.052L291.219 485.305ZM299.13 456.592H300.13L298.166 456.326L299.13 456.592ZM299.13 464.423H298.13V465.423H299.13V464.423ZM310.502 464.423V465.423H311.597L311.497 464.331L310.502 464.423ZM312.974 429.445L313.952 429.651L313.953 429.647L312.974 429.445ZM321.379 396.034L322.264 396.499L322.474 396.101L322.314 395.679L321.379 396.034ZM315.446 391.335L314.456 391.194L314.347 391.957L315.057 392.256L315.446 391.335ZM321.379 365.232L321.203 364.248L320.741 364.331L320.509 364.738L321.379 365.232ZM378.237 367.843L378.563 366.897L378.536 366.888L378.509 366.88L378.237 367.843ZM414.329 391.335L415.199 390.841L415.162 390.777L415.117 390.718L414.329 391.335ZM426.196 432.577L427.195 432.61L427.196 432.594V432.577H426.196ZM419.768 476.43L420.662 476.879L420.681 476.841L420.696 476.802L419.768 476.43ZM402.463 508.275L401.648 507.696L401.639 507.709L401.63 507.722L402.463 508.275ZM360.932 542.208L360.625 541.257L360.585 541.27L360.547 541.286L360.932 542.208ZM280.342 222.712L280.199 221.722L280.198 221.722L280.342 222.712ZM349.561 211.227L349.317 210.257L349.282 210.266L349.247 210.277L349.561 211.227ZM359.943 208.616L360.906 208.887L361.373 207.226L359.7 207.647L359.943 208.616ZM346.594 256.123L345.631 255.853L345.164 257.517L346.84 257.093L346.594 256.123ZM349.561 270.219V271.219H350.154L350.439 270.697L349.561 270.219ZM343.628 270.219V269.219H342.834L342.654 269.992L343.628 270.219ZM326.817 342.262L325.844 342.035L325.56 343.248L326.807 343.262L326.817 342.262ZM398.508 323.468L399.139 324.244L399.166 324.222L399.19 324.199L398.508 323.468ZM446 274.5L446.974 274.724L446.98 274.699L446.985 274.674L446 274.5ZM441.522 222.712L442.432 222.296L442.428 222.287L442.424 222.279L441.522 222.712ZM366.371 174.683L366.507 173.692L366.448 173.684L366.389 173.683L366.371 174.683ZM277.376 189.3L277.787 190.212L277.803 190.205L277.819 190.197L277.376 189.3ZM216.068 224.8L216.667 225.601L216.728 225.555L216.781 225.501L216.068 224.8ZM164.648 278.05L163.843 277.456L163.833 277.471L163.823 277.485L164.648 278.05ZM158.221 287.447L157.395 286.882L157.2 287.167L157.223 287.512L158.221 287.447ZM187.391 339.652L187.886 338.783L187.879 338.779L187.872 338.775L187.391 339.652ZM240.294 352.181L240.178 351.188L240.178 351.188L240.294 352.181ZM274.409 339.652L274.821 340.563L275.244 340.372L275.371 339.925L274.409 339.652ZM289.242 287.447L288.314 287.073L288.294 287.122L288.28 287.173L289.242 287.447ZM253.643 272.307H252.643V273.446L253.773 273.299L253.643 272.307ZM262.543 259.256L262.426 260.249L262.485 260.256H262.543V259.256ZM295.175 259.256V260.256H295.955L296.145 259.499L295.175 259.256ZM284.297 240.984L284.331 239.984L284.314 239.984H284.297V240.984ZM274.409 240.984L273.415 240.873L273.291 241.984H274.409V240.984ZM283.808 596.022L282.923 595.555L282.923 595.555L283.808 596.022ZM139.597 616.946L138.762 617.496L138.763 617.497L139.597 616.946ZM421.327 335.655L421.028 334.701L421.028 334.701L421.327 335.655ZM501.365 235.047L500.366 234.991L500.366 235.002L501.365 235.047ZM501.365 235.044L502.363 235.1L502.364 235.089L501.365 235.044ZM139.593 616.94L140.428 616.39L140.428 616.389L139.593 616.94ZM264.833 344.594L264.343 343.723L264.343 343.723L264.833 344.594ZM409.632 314.001L408.996 313.229L408.987 313.236L408.979 313.244L409.632 314.001ZM409.631 314.002L410.267 314.773L410.276 314.766L410.285 314.758L409.631 314.002ZM367.362 151.325C368.679 141.586 370.829 126.745 372.993 113.873C374.076 107.435 375.161 101.502 376.146 96.9487C376.639 94.6706 377.103 92.7526 377.527 91.2956C377.739 90.5666 377.937 89.9663 378.119 89.5003C378.308 89.0169 378.455 88.741 378.548 88.6153L376.937 87.4291C376.684 87.7732 376.46 88.2497 376.256 88.7735C376.045 89.3148 375.828 89.9765 375.607 90.7369C375.164 92.2586 374.688 94.2282 374.191 96.5258C373.196 101.124 372.106 107.093 371.021 113.541C368.852 126.441 366.699 141.305 365.38 151.057L367.362 151.325ZM378.548 88.6153C379.04 87.9465 378.983 87.1821 378.661 86.5462C378.368 85.9661 377.835 85.43 377.203 84.9373C375.92 83.937 373.878 82.8521 371.211 81.7473C365.854 79.5275 357.734 77.1294 347.462 75.1633C326.909 71.2295 297.63 69.0047 264.388 73.4577L264.653 75.4399C297.664 71.018 326.726 73.2307 347.086 77.1276C357.271 79.077 365.251 81.4426 370.446 83.595C373.055 84.6763 374.903 85.6796 375.974 86.5146C376.519 86.9396 376.78 87.258 376.877 87.4497C376.946 87.5857 376.877 87.5106 376.937 87.4291L378.548 88.6153ZM264.214 73.4969C242.751 80.4094 209.699 96.6062 180.165 122.76C150.624 148.92 124.548 185.093 117.185 231.954L119.161 232.264C126.432 185.99 152.188 150.207 181.491 124.257C210.801 98.3017 243.605 82.2356 264.827 75.4006L264.214 73.4969ZM117.178 232.009C116.268 241.094 115.425 255.938 115.851 270.978C116.275 285.979 117.964 301.327 122.196 311.329L124.038 310.549C119.964 300.921 118.274 285.903 117.85 270.921C117.427 255.978 118.265 241.221 119.168 232.209L117.178 232.009ZM122.168 310.624C116.544 327.567 106.473 370.472 111.248 406.606L113.231 406.344C108.513 370.642 118.484 328.071 124.066 311.254L122.168 310.624ZM111.26 406.673C113.911 419.796 123.682 451.112 141.652 471.351L143.147 470.023C125.519 450.169 115.842 419.256 113.22 406.277L111.26 406.673ZM141.502 470.245C138.267 476.814 133.428 488.136 129.395 500.807C125.366 513.463 122.117 527.543 122.117 539.598H124.117C124.117 527.848 127.295 513.998 131.301 501.413C135.302 488.842 140.104 477.612 143.296 471.129L141.502 470.245ZM122.121 539.504C120.794 553.522 121.807 588.075 136.585 614.222L138.326 613.238C123.834 587.597 122.803 553.517 124.113 539.692L122.121 539.504ZM285.296 595.047C285.212 593.302 284.933 591.533 284.294 590.176C283.641 588.79 282.505 587.656 280.731 587.712C279.12 587.763 277.276 588.811 275.141 590.81C272.969 592.844 270.341 596.012 267.158 600.633L268.805 601.768C271.951 597.201 274.485 594.164 276.508 592.27C278.567 590.341 279.949 589.738 280.794 589.711C281.475 589.69 282.024 590.051 282.484 591.028C282.958 592.034 283.219 593.495 283.299 595.144L285.296 595.047ZM267.142 600.657C262.576 607.717 254.196 617.987 243.94 625.803C233.662 633.636 221.69 638.866 209.856 636.246L209.424 638.199C222.113 641.008 234.698 635.362 245.152 627.394C255.629 619.409 264.158 608.953 268.821 601.744L267.142 600.657ZM209.775 636.231C194.821 634.194 163.618 619.043 159.711 574.488L157.719 574.663C161.723 620.319 193.806 636.074 209.505 638.213L209.775 636.231ZM159.709 574.467C158.809 566.254 158.118 552.266 158.984 537.058C159.851 521.837 162.273 505.475 167.552 492.467L165.699 491.715C160.299 505.019 157.859 521.634 156.988 536.944C156.115 552.267 156.809 566.366 157.721 574.685L159.709 574.467ZM166.191 492.992C172.195 495.89 189.14 499.803 209.949 493.042L209.331 491.14C189.005 497.744 172.593 493.861 167.061 491.191L166.191 492.992ZM209.935 493.047C217.818 490.619 235.097 485.1 240.706 482.561L239.882 480.739C234.416 483.213 217.284 488.691 209.346 491.136L209.935 493.047ZM239.309 481.48C237.752 490.477 234.357 504.502 229.242 517.301C226.685 523.7 223.71 529.763 220.338 534.73C216.957 539.708 213.23 543.508 209.199 545.487L210.081 547.283C214.554 545.086 218.52 540.968 221.992 535.853C225.473 530.727 228.511 524.521 231.1 518.043C236.277 505.087 239.705 490.922 241.28 481.821L239.309 481.48ZM209.038 545.587C204.614 548.924 189.753 556.149 166.572 557.394L166.679 559.391C190.172 558.129 205.438 550.807 210.242 547.183L209.038 545.587ZM165.626 558.392V574.576H167.626V558.392H165.626ZM166.814 575.558C177.678 573.472 203.894 569.418 221.978 569.833L222.024 567.833C203.718 567.413 177.328 571.503 166.437 573.594L166.814 575.558ZM221.94 569.831C253.39 571.744 318.768 575.576 328.301 575.576V573.576C318.848 573.576 253.567 569.751 222.061 567.835L221.94 569.831ZM328.327 575.575C338.384 575.312 355.33 573.237 373.587 567.874C391.84 562.513 411.479 553.845 426.855 540.35L425.536 538.847C410.456 552.081 391.118 560.64 373.023 565.955C354.932 571.269 338.159 573.317 328.275 573.576L328.327 575.575ZM426.825 540.375C438.233 531.123 463.985 506.507 475.552 482.078L473.745 481.222C462.371 505.241 436.901 529.628 425.566 538.822L426.825 540.375ZM475.575 482.028C478.898 473.868 483.271 459.932 485.624 444.566C487.975 429.218 488.328 412.324 483.505 398.318L481.614 398.969C486.283 412.528 485.977 429.046 483.647 444.264C481.32 459.464 476.991 473.249 473.722 481.273L475.575 482.028ZM483.519 398.365C478.34 380.547 456.307 343.727 409.493 338.658L409.278 340.646C455.019 345.6 476.56 381.589 481.599 398.923L483.519 398.365ZM502.499 232.157C503.017 221.331 497.218 209.49 486.712 198.123C476.186 186.735 460.832 175.704 441.962 166.476L441.083 168.273C459.789 177.421 474.924 188.316 485.243 199.481C495.582 210.667 500.983 222.004 500.501 232.061L502.499 232.157ZM441.872 166.437C430.597 162.235 399.788 153.127 366.459 150.194L366.283 152.187C399.403 155.101 430.035 164.16 441.173 168.311L441.872 166.437ZM355.504 153.308C355.755 144.591 354.408 131.035 349.54 118.628C344.673 106.222 336.215 94.8049 322.152 90.7163L321.594 92.6368C334.824 96.4834 342.929 107.253 347.678 119.358C352.427 131.462 353.75 144.739 353.505 153.25L355.504 153.308ZM322.237 90.7451C310.036 85.9802 279.178 80.6791 253.099 97.6247L254.188 99.3018C279.529 82.836 309.649 87.976 321.509 92.608L322.237 90.7451ZM253.098 97.625C244.923 102.944 230.838 112.485 216.718 125.165C202.608 137.836 188.406 153.691 180.057 171.651L181.871 172.494C190.058 154.882 204.038 139.239 218.054 126.653C232.062 114.074 246.048 104.598 254.189 99.3014L253.098 97.625ZM180.057 171.651C163.506 207.256 156.82 231.266 157.221 249.88L159.22 249.837C158.83 231.699 165.35 208.035 181.871 172.494L180.057 171.651ZM158.963 250.529C167.427 241.157 181.686 226.622 196.931 213.499C212.217 200.339 228.349 188.728 240.583 185.037L240.005 183.123C227.321 186.949 210.903 198.831 195.626 211.983C180.307 225.17 165.989 239.766 157.479 249.188L158.963 250.529ZM240.724 184.983C254.23 178.548 286.801 164.569 309.218 160.001L308.819 158.042C286.145 162.662 253.387 176.734 239.864 183.177L240.724 184.983ZM309.144 160.014L354.63 154.271L354.38 152.287L308.893 158.029L309.144 160.014ZM136.478 339.441C134.985 346.357 133.099 357.864 132.28 369.955C131.462 382.018 131.697 394.785 134.52 404.153L136.435 403.576C133.721 394.568 133.461 382.102 134.275 370.09C135.087 358.105 136.959 346.694 138.433 339.863L136.478 339.441ZM134.531 404.188C135.96 408.358 138.966 414.967 143.369 421.335C147.764 427.691 153.618 433.904 160.775 437.143L161.6 435.321C154.913 432.295 149.313 426.414 145.014 420.197C140.723 413.992 137.797 407.549 136.424 403.54L134.531 404.188ZM161.901 436.932L191.072 407.175L189.644 405.775L160.473 435.532L161.901 436.932ZM190.951 407.279C196.126 403.464 204.357 397.739 212.223 392.973C216.157 390.59 219.982 388.457 223.277 386.923C226.623 385.366 229.266 384.504 230.9 384.504V382.504C228.777 382.504 225.771 383.557 222.433 385.11C219.045 386.687 215.15 388.861 211.186 391.263C203.255 396.068 194.973 401.829 189.764 405.67L190.951 407.279ZM231.177 384.465C236.559 382.915 250.911 379.698 265.044 379.283L264.986 377.284C250.641 377.705 236.118 380.961 230.624 382.543L231.177 384.465ZM265.015 379.284C265.419 379.284 265.782 379.127 266.077 378.932C266.377 378.734 266.666 378.457 266.944 378.121C267.498 377.449 268.088 376.44 268.692 375.021C269.902 372.176 271.237 367.52 272.43 360.172L270.455 359.852C269.275 367.121 267.973 371.601 266.851 374.238C266.289 375.559 265.789 376.378 265.401 376.848C265.208 377.082 265.062 377.206 264.974 377.264C264.88 377.326 264.899 377.284 265.015 377.284V379.284ZM271.053 359.091C262.814 362.571 243.488 369.998 228.818 371.547L229.028 373.536C244.022 371.952 263.59 364.414 271.832 360.933L271.053 359.091ZM228.818 371.547C214.037 373.107 197.153 373.307 182.67 370L182.225 371.95C197.011 375.326 214.143 375.107 229.028 373.536L228.818 371.547ZM182.779 370.032C176.903 367.964 167.6 363.921 158.844 358.534C150.052 353.125 141.976 346.461 138.35 339.205L136.561 340.099C140.449 347.878 148.936 354.787 157.796 360.237C166.69 365.709 176.125 369.81 182.115 371.918L182.779 370.032ZM181.619 453.498C182.383 454.628 183.446 456.69 184.075 459.114C184.704 461.54 184.875 464.232 183.98 466.691L185.859 467.375C186.941 464.404 186.7 461.267 186.011 458.612C185.321 455.954 184.159 453.683 183.276 452.377L181.619 453.498ZM184.16 467.684C186.642 470.575 191.227 474.393 196.994 476.532C202.79 478.682 209.815 479.143 217.039 475.22L216.085 473.463C209.465 477.057 203.058 476.648 197.689 474.657C192.291 472.654 187.976 469.059 185.678 466.382L184.16 467.684ZM217.117 475.174C223.443 470.955 237.817 459.036 244.654 445.023L242.856 444.146C236.245 457.698 222.206 469.376 216.007 473.51L217.117 475.174ZM244.64 445.05C248.196 438.285 253.404 427.498 257.479 417.109C259.516 411.915 261.279 406.799 262.408 402.324C263.527 397.889 264.064 393.938 263.525 391.145L261.561 391.525C262.011 393.852 261.58 397.431 260.469 401.834C259.368 406.196 257.639 411.225 255.617 416.378C251.576 426.683 246.401 437.401 242.87 444.119L244.64 445.05ZM262.599 390.337C253.021 389.804 229.855 392.975 213.372 409.955L214.808 411.348C230.759 394.915 253.277 391.822 262.488 392.334L262.599 390.337ZM213.377 409.95C208.743 414.668 201.599 422.447 195.212 430.466C192.018 434.476 189.004 438.559 186.585 442.357C184.176 446.14 182.316 449.705 181.484 452.667L183.41 453.208C184.161 450.532 185.894 447.166 188.272 443.432C190.64 439.713 193.609 435.69 196.777 431.712C203.112 423.757 210.208 416.031 214.803 411.352L213.377 409.95ZM265.839 542.775C271.977 533.842 285.819 509.93 292.187 485.557L290.252 485.052C283.962 509.126 270.249 532.825 264.191 541.642L265.839 542.775ZM292.183 485.57L300.094 456.857L298.166 456.326L290.255 485.039L292.183 485.57ZM298.13 456.592V464.423H300.13V456.592H298.13ZM299.13 465.423H310.502V463.423H299.13V465.423ZM311.497 464.331C311.011 459.019 310.812 444.573 313.952 429.651L311.995 429.239C308.807 444.387 309.004 459.037 309.506 464.514L311.497 464.331ZM313.953 429.647C314.94 424.869 316.545 417.467 318.149 410.793C318.951 407.456 319.75 404.309 320.471 401.767C321.203 399.187 321.826 397.331 322.264 396.499L320.494 395.568C319.942 396.616 319.268 398.68 318.547 401.221C317.816 403.801 317.009 406.977 316.204 410.326C314.594 417.026 312.985 424.45 311.994 429.243L313.953 429.647ZM322.314 395.679C321.855 394.468 319.943 392.149 315.835 390.414L315.057 392.256C318.86 393.862 320.243 395.859 320.444 396.388L322.314 395.679ZM316.436 391.476C316.928 388.011 317.815 382.551 318.872 377.442C319.401 374.888 319.971 372.433 320.552 370.365C321.141 368.272 321.72 366.656 322.248 365.726L320.509 364.738C319.851 365.897 319.219 367.718 318.627 369.823C318.028 371.953 317.448 374.458 316.914 377.037C315.846 382.196 314.952 387.699 314.456 391.194L316.436 391.476ZM321.555 366.217C331.189 364.493 356.01 362.595 377.965 368.805L378.509 366.88C356.164 360.561 331.016 362.492 321.203 364.248L321.555 366.217ZM377.911 368.788C381.887 370.159 388.477 372.977 395.245 376.953C402.023 380.936 408.906 386.037 413.542 391.952L415.117 390.718C410.26 384.521 403.135 379.269 396.258 375.229C389.372 371.183 382.662 368.311 378.563 366.897L377.911 368.788ZM413.46 391.829C417.379 398.725 425.196 416.54 425.196 432.577H427.196C427.196 416.039 419.191 397.867 415.199 390.841L413.46 391.829ZM425.196 432.545C425.032 437.566 424.515 445.784 423.497 454.095C422.476 462.433 420.963 470.76 418.84 476.058L420.696 476.802C422.924 471.241 424.46 462.688 425.482 454.338C426.508 445.961 427.029 437.682 427.195 432.61L425.196 432.545ZM418.875 475.981C416.735 480.239 413.302 486.94 409.962 493.2C406.607 499.486 403.383 505.253 401.648 507.696L403.279 508.854C405.103 506.285 408.39 500.393 411.726 494.141C415.076 487.864 418.516 481.148 420.662 476.879L418.875 475.981ZM401.63 507.722C398.791 512.006 393.306 518.86 386.128 525.417C378.945 531.978 370.127 538.185 360.625 541.257L361.24 543.16C371.118 539.967 380.182 533.558 387.477 526.894C394.777 520.225 400.368 513.245 403.297 508.828L401.63 507.722ZM360.547 541.286C344.878 547.834 303.833 557.021 265.394 541.283L264.636 543.134C303.722 559.137 345.343 549.808 361.318 543.131L360.547 541.286ZM280.485 223.702C290.707 222.222 306.434 219.872 320.4 217.63C327.382 216.51 333.929 215.415 339.128 214.47C344.293 213.531 348.211 212.725 349.874 212.176L349.247 210.277C347.746 210.773 343.984 211.554 338.77 212.502C333.591 213.444 327.06 214.536 320.083 215.656C306.131 217.895 290.414 220.244 280.199 221.722L280.485 223.702ZM349.804 212.197L360.187 209.586L359.7 207.647L349.317 210.257L349.804 212.197ZM358.981 208.346L345.631 255.853L347.557 256.394L360.906 208.887L358.981 208.346ZM346.84 257.093C347.776 256.856 348.794 256.768 349.671 256.93C350.533 257.09 351.189 257.472 351.585 258.128C351.993 258.804 352.235 259.952 351.865 261.865C351.496 263.775 350.535 266.342 348.683 269.74L350.439 270.697C352.343 267.204 353.406 264.434 353.829 262.245C354.251 260.06 354.055 258.35 353.297 257.094C352.527 255.819 351.29 255.196 350.035 254.964C348.794 254.734 347.473 254.869 346.349 255.154L346.84 257.093ZM349.561 269.219H343.628V271.219H349.561V269.219ZM342.654 269.992L325.844 342.035L327.791 342.489L344.601 270.446L342.654 269.992ZM326.807 343.262C334.864 343.35 348.112 342.509 361.74 339.705C375.343 336.905 389.459 332.123 399.139 324.244L397.877 322.693C388.572 330.266 374.835 334.968 361.336 337.746C347.862 340.519 334.757 341.348 326.828 341.262L326.807 343.262ZM446.985 274.674C448.158 268.038 448.419 258.029 447.7 248.181C446.983 238.352 445.278 228.52 442.432 222.296L440.613 223.128C443.305 229.015 444.992 238.552 445.706 248.326C446.418 258.081 446.149 267.911 445.015 274.326L446.985 274.674ZM442.424 222.279C439.455 216.099 431.228 205.438 418.412 195.594C405.575 185.734 388.07 176.644 366.507 173.692L366.235 175.674C387.39 178.569 404.576 187.489 417.194 197.18C429.832 206.887 437.822 217.318 440.621 223.145L442.424 222.279ZM366.389 173.683C356.786 173.508 340.817 174.032 324.07 176.171C307.344 178.307 289.741 182.064 276.932 188.404L277.819 190.197C290.324 184.007 307.66 180.282 324.324 178.155C340.967 176.03 356.839 175.51 366.353 175.683L366.389 173.683ZM276.964 188.389C269.035 191.965 256.452 198.032 244.46 204.621C232.509 211.187 221.009 218.341 215.354 224.099L216.781 225.501C222.201 219.982 233.445 212.954 245.423 206.374C257.361 199.815 269.895 193.771 277.787 190.212L276.964 188.389ZM215.468 224C206.337 230.836 183.29 251.055 163.843 277.456L165.453 278.643C184.768 252.421 207.669 232.337 216.667 225.601L215.468 224ZM163.823 277.485L157.395 286.882L159.046 288.011L165.474 278.614L163.823 277.485ZM157.223 287.512C157.642 293.886 159.621 304.132 164.194 314.273C168.766 324.414 175.975 334.542 186.911 340.529L187.872 338.775C177.449 333.068 170.484 323.358 166.017 313.451C161.551 303.546 159.623 293.536 159.219 287.381L157.223 287.512ZM186.897 340.521C191.257 343 199.608 346.741 209.355 349.574C219.094 352.404 230.324 354.356 240.411 353.174L240.178 351.188C230.47 352.325 219.534 350.449 209.913 347.653C200.299 344.859 192.096 341.176 187.886 338.783L186.897 340.521ZM275.371 339.925L290.204 287.72L288.28 287.173L273.447 339.379L275.371 339.925ZM290.169 287.82C291.697 284.026 291.592 278.555 286.278 274.732C281.104 271.009 271.17 269.011 253.514 271.315L253.773 273.299C271.32 271.009 280.586 273.1 285.11 276.355C289.495 279.51 289.588 283.907 288.314 287.073L290.169 287.82ZM254.643 272.307C254.643 270.046 255.077 266.737 256.325 264.139C256.945 262.847 257.739 261.789 258.722 261.101C259.684 260.428 260.884 260.068 262.426 260.249L262.66 258.262C260.643 258.026 258.95 258.501 257.576 259.462C256.223 260.409 255.237 261.785 254.522 263.273C253.1 266.235 252.643 269.87 252.643 272.307H254.643ZM262.543 260.256H295.175V258.256H262.543V260.256ZM296.145 259.499C296.914 256.429 297.294 251.746 295.83 247.716C295.091 245.682 293.872 243.789 291.975 242.38C290.075 240.969 287.564 240.094 284.331 239.984L284.263 241.983C287.162 242.082 289.262 242.856 290.782 243.986C292.305 245.117 293.317 246.657 293.95 248.399C295.23 251.922 294.918 256.166 294.205 259.012L296.145 259.499ZM284.297 239.984H274.409V241.984H284.297V239.984ZM275.403 241.095C275.729 238.175 276.414 233.775 277.402 230.066C277.898 228.206 278.457 226.568 279.063 225.388C279.366 224.797 279.659 224.362 279.931 224.076C280.206 223.786 280.393 223.715 280.486 223.701L280.198 221.722C279.5 221.824 278.929 222.226 278.48 222.699C278.028 223.175 277.633 223.793 277.283 224.476C276.582 225.843 275.979 227.639 275.47 229.551C274.448 233.388 273.748 237.894 273.415 240.873L275.403 241.095ZM283.413 594.628L282.923 595.555L284.692 596.49L285.182 595.563L283.413 594.628ZM282.923 595.555C273.537 613.315 265.477 628.547 254.546 639.678C243.672 650.749 229.927 657.784 209.087 659.007L209.204 661.003C230.518 659.753 244.737 652.519 255.973 641.079C267.15 629.698 275.344 614.176 284.692 596.49L282.923 595.555ZM138.763 617.497C148.99 632.977 169.01 663.362 209.204 661.003L209.087 659.007C170.149 661.292 150.708 631.949 140.431 616.394L138.763 617.497ZM409.748 340.584C413.038 339.302 417.044 338.045 421.626 336.609L421.028 334.701C416.467 336.13 412.389 337.408 409.022 338.72L409.748 340.584ZM421.626 336.609C436.07 332.082 455.938 325.86 475.239 311.746L474.058 310.132C455.052 324.03 435.472 330.173 421.028 334.701L421.626 336.609ZM475.239 311.746C487.544 302.748 494.065 288.884 497.641 274.685C501.217 260.485 501.878 245.816 502.363 235.093L500.366 235.002C499.879 245.747 499.221 260.221 495.701 274.197C492.181 288.176 485.83 301.523 474.058 310.132L475.239 311.746ZM500.501 232.061C500.456 233.004 500.412 233.985 500.366 234.999L502.364 235.089C502.41 234.075 502.454 233.097 502.499 232.157L500.501 232.061ZM500.366 234.988L500.366 234.991L502.363 235.104L502.363 235.1L500.366 234.988ZM140.432 616.395L140.428 616.39L138.758 617.49L138.762 617.496L140.432 616.395ZM140.428 616.389C139.664 615.234 138.95 614.152 138.283 613.169L136.628 614.291C137.286 615.263 137.994 616.334 138.759 617.491L140.428 616.389ZM273.997 338.741C269.883 340.602 266.936 342.262 264.343 343.723L265.324 345.465C267.911 344.009 270.793 342.386 274.821 340.563L273.997 338.741ZM264.343 343.723C261.23 345.475 258.66 346.921 255.144 348.142C251.625 349.365 247.122 350.374 240.178 351.188L240.411 353.174C247.44 352.351 252.098 351.318 255.8 350.032C259.505 348.744 262.218 347.215 265.324 345.465L264.343 343.723ZM445.026 274.276C444.392 277.025 442.754 280.106 440.36 283.399C437.974 286.681 434.882 290.114 431.412 293.566C424.47 300.472 416.092 307.379 408.996 313.229L410.268 314.772C417.35 308.935 425.802 301.968 432.823 294.984C436.334 291.491 439.506 287.974 441.978 284.575C444.442 281.185 446.254 277.851 446.974 274.724L445.026 274.276ZM399.19 324.199C401.885 321.684 405.794 318.461 410.267 314.773L408.995 313.23C404.542 316.901 400.576 320.17 397.826 322.737L399.19 324.199ZM410.285 314.758L410.286 314.757L408.979 313.244L408.978 313.245L410.285 314.758Z" fill="white" mask="url(#path-1-inside-1_12_5)"/>
</svg>
