<svg xmlns="http://www.w3.org/2000/svg" xmlns:xlink="http://www.w3.org/1999/xlink" id="Layer_1" x="0px" y="0px" viewBox="0 0 113.6 15" style="enable-background:new 0 0 113.6 15;" xml:space="preserve"> <style type="text/css"> .st0{opacity:0.96;fill:#EDEDED;enable-background:new ;} .st1{fill:#00579F;} .st2{fill:#FAA61A;} .st3{fill:none;} .st4{fill:#11559C;} .st5{fill:#F2A724;} .st6{fill:#FD0C15;} .st7{fill:#F3AE12;} .st8{fill:#FF5A00;} .st9{fill:#EB001B;} .st10{fill:#F79E1B;} </style> <path class="st0" d="M22,1.6H2.4c-0.9,0-1.6,0.7-1.6,1.6v9.1c0,0.9,0.7,1.6,1.6,1.6H22c0.9,0,1.6-0.7,1.6-1.6V3.2 C23.6,2.3,22.9,1.6,22,1.6z M5.8,10.7L4.4,5.5C3.9,5.3,3.4,5,2.8,4.9l0-0.1h2.5c0.3,0,0.6,0.1,0.7,0.5L6.5,8c0,0,0-0.1,0-0.1 c0,0,0,0.1,0,0.1l0.1,0.8l1.5-4.1h1.6l-2.4,5.9L5.8,10.7L5.8,10.7z M9.4,10.7l1-5.9h1.5l-1,5.9H9.4z M13.6,10.8 c-0.7,0-1.3-0.1-1.7-0.3l0.2-1.4l0.2,0.1c0.5,0.2,0.8,0.3,1.4,0.3c0.4,0,0.9-0.1,0.9-0.6c0-0.2-0.2-0.4-0.8-0.7 c-0.6-0.2-1.4-0.7-1.4-1.6c0-1.2,1.1-2,2.6-2c0.6,0,1.1,0.1,1.4,0.2l-0.2,1.3l-0.1,0C15.8,6,15.5,5.9,15,5.9c-0.6,0-0.9,0.2-0.9,0.5 s0.3,0.5,0.9,0.7c0.9,0.4,1.3,1,1.3,1.6C16.3,10,15.2,10.8,13.6,10.8z M20.2,10.7c0,0-0.1-0.7-0.1-0.9c-0.2,0-1.8,0-2,0 c0,0.1-0.3,0.9-0.3,0.9h-1.6l2.3-5.4c0.1-0.3,0.4-0.5,0.8-0.5h1.2l1.3,5.9H20.2z"></path> <path class="st0" d="M19.4,6.3c0,0.2-0.2,0.6-0.2,0.6c0,0-0.5,1.3-0.6,1.6c0.3,0,1,0,1.3,0c0-0.3-0.3-1.7-0.3-1.7L19.4,6.3z"></path> <polygon class="st1" points="10.4,4.7 9.4,10.7 11,10.7 11.9,4.7 "></polygon> <path class="st1" d="M15,7.1c-0.5-0.2-0.9-0.5-0.9-0.7s0.2-0.5,0.9-0.5c0.5,0,0.9,0.1,1.2,0.2l0.1,0l0.2-1.3 c-0.3-0.1-0.8-0.2-1.4-0.2c-1.5,0-2.6,0.8-2.6,2c0,0.9,0.8,1.4,1.4,1.6c0.6,0.3,0.8,0.5,0.8,0.7c0,0.4-0.5,0.6-0.9,0.6 c-0.6,0-1-0.1-1.4-0.3l-0.2-0.1l-0.2,1.4c0.4,0.1,1,0.3,1.7,0.3c1.6,0,2.7-0.8,2.7-2C16.3,8,15.9,7.5,15,7.1z"></path> <path class="st1" d="M19.3,4.7c-0.4,0-0.6,0.1-0.8,0.5l-2.2,5.5h1.6c0,0,0.2-0.7,0.3-0.9c0.1,0,1.7,0,2,0c0,0.2,0.1,0.9,0.1,0.9h1.4 l-1.3-5.9H19.3z M18.6,8.6C18.7,8.3,19.2,7,19.2,7c0,0,0.1-0.3,0.2-0.6l0.1,0.5c0,0,0.3,1.4,0.3,1.7C19.6,8.6,18.8,8.6,18.6,8.6z"></path> <path class="st1" d="M8.2,4.7L6.7,8.8L6.5,8c0,0,0-0.1,0-0.1C6.1,6.9,5.4,6.1,4.4,5.5l1.4,5.2h1.6l2.4-5.9H8.2z"></path> <path class="st2" d="M6.5,7.9C6.5,7.9,6.5,8,6.5,7.9L6,5.3C5.9,4.9,5.7,4.7,5.3,4.7H2.8l0,0.1C3.3,5,3.9,5.3,4.4,5.5l0,0 C5.3,6,6.1,7,6.5,7.9z"></path> <path class="st2" d="M6.5,7.9C6.2,7,5.3,6.1,4.4,5.6l0,0C5.4,6.1,6.1,6.9,6.5,7.9z"></path> <path class="st3" d="M73.4,9.6c0,0.2-0.2,0.5-0.2,0.5s-0.4,1.1-0.5,1.4c0.2,0,0.9,0,1,0c0-0.2-0.3-1.4-0.3-1.4L73.4,9.6z"></path> <path class="st3" d="M68.7,4.6c-0.3,0-0.6,0.2-0.7,0.7h1.2C69.2,4.8,69,4.6,68.7,4.6z"></path> <path class="st3" d="M58.9,4.6c-0.3,0-0.6,0.2-0.7,0.7h1.2C59.4,4.8,59.3,4.6,58.9,4.6z"></path> <path class="st3" d="M71.3,6.5c0.3,0,0.5-0.1,0.8-0.4l0.2-1.3c-0.2-0.1-0.3-0.1-0.6-0.1c-0.4,0-0.7,0.3-0.8,1 C70.8,6.2,71,6.5,71.3,6.5z"></path> <path class="st3" d="M75.3,5.3c-0.2,0-0.4,0.1-0.5,0.3l-0.1,1c0.1,0,0.2,0,0.3,0c0.3,0,0.6-0.2,0.7-0.7C75.7,5.5,75.6,5.3,75.3,5.3z "></path> <path class="st4" d="M64.1,8.3L64.1,8.3l-1.2,3.3L62.7,11c0,0,0,0,0,0v0c-0.3-0.8-0.9-1.5-1.7-2l1.1,4.2h1.4l2-4.9H64.1z"></path> <path class="st4" d="M69.7,10.3C69.3,10,69,9.9,69,9.6c0-0.2,0.2-0.4,0.7-0.4c0.4,0,0.7,0.1,1,0.2l0.1,0l0.1-1.1 c-0.2-0.1-0.6-0.2-1.1-0.2c-1.3,0-2.1,0.7-2.1,1.6c0,0.7,0.6,1.1,1.1,1.4c0.5,0.2,0.7,0.4,0.7,0.6c0,0.3-0.4,0.5-0.8,0.5 c-0.5,0-0.8-0.1-1.2-0.2l-0.1-0.1L67.2,13c0.3,0.1,0.8,0.2,1.4,0.3c1.4,0,2.2-0.7,2.2-1.7C70.9,11,70.5,10.6,69.7,10.3z"></path> <path class="st4" d="M73.3,8.3c-0.3,0-0.5,0.1-0.7,0.4l-1.9,4.5h1.4c0,0,0.2-0.6,0.3-0.7c0.1,0,1.4,0,1.6,0c0,0.2,0.1,0.7,0.1,0.7 h1.2l-1-4.9H73.3z M72.7,11.5c0.1-0.3,0.5-1.4,0.5-1.4s0.1-0.3,0.2-0.5l0,0.4c0,0,0.2,1.2,0.3,1.4C73.6,11.5,72.9,11.5,72.7,11.5z"></path> <polygon class="st4" points="65.2,13.2 66.4,13.2 67.2,8.3 65.9,8.3 "></polygon> <path class="st5" d="M62.7,10.9l-0.4-2.2c0-0.3-0.3-0.4-0.6-0.4h-2v0.1c0.5,0.1,1,0.3,1.4,0.6v0C61.7,9.2,62.4,10.1,62.7,10.9z"></path> <path class="st5" d="M62.7,11L62.7,11c-0.3-0.9-1-1.7-1.7-2.1v0C61.8,9.4,62.4,10.2,62.7,11z"></path> <polygon class="st4" points="66.5,7.1 66.9,4.1 66.2,4.1 65.7,7.1 "></polygon> <path class="st4" d="M68.4,7.2c0.5,0,0.9-0.1,1.3-0.4V6.2c-0.3,0.2-0.7,0.4-1.1,0.4c-0.5,0-0.7-0.2-0.7-0.8h1.9c0,0,0-0.1,0-0.1 c0.1-0.9-0.2-1.5-1.1-1.5c-0.8,0-1.4,0.6-1.6,1.5C67,6.7,67.5,7.2,68.4,7.2z M68.7,4.6c0.3,0,0.5,0.3,0.5,0.7H68 C68.1,4.8,68.3,4.6,68.7,4.6z"></path> <path class="st4" d="M66.6,3.6c0.2,0,0.5-0.2,0.5-0.4c0-0.3-0.1-0.4-0.4-0.4s-0.5,0.2-0.5,0.4C66.2,3.4,66.4,3.6,66.6,3.6z"></path> <path class="st4" d="M75.5,4.7c-0.3,0-0.5,0.1-0.7,0.3l0.2-1.4l-0.6,0.1L74,7c0.3,0.1,0.6,0.1,0.9,0.1c0.7,0,1.2-0.4,1.3-1.3 C76.4,5.1,76,4.7,75.5,4.7z M75.7,5.9c0,0.5-0.3,0.7-0.7,0.7c-0.1,0-0.2,0-0.3,0l0.1-1c0.2-0.2,0.3-0.3,0.5-0.3 C75.6,5.3,75.7,5.5,75.7,5.9z"></path> <path class="st4" d="M71,7.2c0.4,0,0.7-0.2,1-0.5v0.4l0,0h0.6l0.7-4.5l-0.8,0.1l-0.2,1.4c-0.2,0-0.4-0.1-0.7-0.1 c-0.7,0-1.4,0.5-1.5,1.6C69.9,6.7,70.4,7.2,71,7.2z M70.9,5.6c0.1-0.7,0.4-1,0.8-1c0.2,0,0.4,0,0.6,0.1l-0.2,1.3 c-0.2,0.2-0.5,0.4-0.8,0.4C71,6.5,70.8,6.2,70.9,5.6z"></path> <path class="st4" d="M78.2,4.8l-0.8,1.6l-0.3-1.6l-0.6,0l0.5,2.2L77,7.3c-0.1,0.1-0.2,0.2-0.4,0.2c-0.1,0-0.2,0-0.2,0v0.5 c0,0,0.1,0,0.2,0c0.4,0,0.7-0.2,1-0.7l1.2-2.4C78.8,4.8,78.2,4.8,78.2,4.8z"></path> <polygon class="st4" points="63.2,7.1 63.7,4.1 62.9,4.1 62.4,7.1 "></polygon> <path class="st4" d="M63.9,7.1h0.8l0.3-2.4h0.7V4.1h-0.6l0-0.4c0-0.3,0.2-0.4,0.4-0.4c0.1,0,0.2,0,0.3,0V2.7c-0.1,0-0.2,0-0.3,0 c-0.6,0-1.1,0.2-1.2,0.9l-0.1,0.5H64l-0.1,0.6h0.4L63.9,7.1z"></path> <path class="st4" d="M61.3,5.4C61.6,5,62,4.8,62.4,4.7V4c-0.5,0-0.8,0.3-1.1,0.7V4.1h-0.7l-0.5,3H61L61.3,5.4z"></path> <polygon class="st4" points="57.2,2.8 55.6,6.1 55,2.8 54.1,2.9 55,7.1 55.8,7.1 58.1,2.8 "></polygon> <path class="st4" d="M63.3,3.6c0.2,0,0.5-0.2,0.5-0.4c0-0.3-0.1-0.4-0.4-0.4s-0.5,0.2-0.5,0.4C62.9,3.4,63.1,3.6,63.3,3.6z"></path> <path class="st4" d="M59.8,6.2c-0.3,0.2-0.7,0.4-1.1,0.4c-0.5,0-0.7-0.2-0.7-0.8H60c0,0,0-0.1,0-0.2C60.2,4.7,59.8,4,59,4 c-0.8,0-1.4,0.6-1.6,1.5c-0.1,1.1,0.4,1.5,1.2,1.5c0.5,0,0.9-0.1,1.3-0.3V6.2z M58.9,4.6c0.3,0,0.5,0.3,0.5,0.7h-1.2 C58.3,4.8,58.6,4.6,58.9,4.6z"></path> <path class="st3" d="M108.5,10c-0.3,0-0.4,0.2-0.5,0.6h0.9c0,0,0-0.1,0-0.2C109,10.2,108.8,10,108.5,10z"></path> <path class="st3" d="M105.5,10.1c-0.4,0-0.7,0.5-0.7,1.2c0,0.5,0.1,0.7,0.4,0.7c0.4,0,0.7-0.5,0.7-1.2 C106,10.3,105.8,10.1,105.5,10.1z"></path> <path class="st3" d="M87.8,6.2c0,0.2,0.1,0.3,0.3,0.3c0.3,0,0.6-0.4,0.6-0.9c-0.1,0-0.1,0-0.2,0C88,5.7,87.8,5.9,87.8,6.2z"></path> <path class="st3" d="M95.9,4.9c0-0.3-0.1-0.5-0.4-0.5S95,4.7,94.9,5.1h1C95.9,5,95.9,5,95.9,4.9z"></path> <path class="st3" d="M86.9,10c-0.3,0-0.4,0.2-0.5,0.6h0.9c0,0,0-0.1,0-0.2C87.3,10.2,87.2,10,86.9,10z"></path> <path class="st3" d="M102.4,10.1c-0.4,0-0.7,0.6-0.7,1.2c0,0.5,0.2,0.8,0.5,0.8c0.4,0,0.7-0.5,0.7-1.3 C102.9,10.4,102.7,10.1,102.4,10.1z"></path> <path class="st3" d="M102.5,6.2c0,0.2,0.1,0.3,0.3,0.3c0.3,0,0.6-0.4,0.7-0.9c-0.1,0-0.1,0-0.2,0C102.8,5.7,102.5,5.9,102.5,6.2z"></path> <path class="st3" d="M110.1,6.4c-0.2,0-0.4,0.2-0.4,0.4c0,0.2,0.2,0.4,0.4,0.4c0.2,0,0.4-0.2,0.4-0.4C110.5,6.6,110.3,6.4,110.1,6.4 z M110.2,7.1l-0.1-0.2H110v0.2h-0.1V6.6h0.2c0,0,0.1,0,0.1,0s0,0,0,0.1c0,0,0,0.1-0.1,0.1L110.2,7.1L110.2,7.1L110.2,7.1z"></path> <path class="st3" d="M107.7,6.5c0.4,0,0.7-0.5,0.7-1.2c0-0.4-0.2-0.7-0.5-0.7c-0.4,0-0.7,0.5-0.7,1.2C107.3,6.2,107.4,6.5,107.7,6.5 z"></path> <path class="st3" d="M96.9,10c-0.3,0-0.4,0.2-0.5,0.6h0.9c0,0,0-0.1,0-0.2C97.3,10.2,97.1,10,96.9,10z"></path> <path class="st3" d="M110.1,6.6L110.1,6.6l0,0.1h0c0,0,0,0,0,0L110.1,6.6C110.2,6.7,110.2,6.7,110.1,6.6 C110.2,6.6,110.1,6.6,110.1,6.6z"></path> <path class="st6" d="M110.3,6.7c0,0,0-0.1,0-0.1s-0.1,0-0.1,0h-0.2V7h0.1V6.8h0.1l0.1,0.2h0.1L110.3,6.7 C110.3,6.8,110.3,6.8,110.3,6.7z M110.2,6.7L110.2,6.7L110.2,6.7l-0.1-0.1h0h0V6.7C110.2,6.7,110.2,6.7,110.2,6.7z"></path> <path class="st6" d="M110.1,6.2c-0.3,0-0.5,0.2-0.5,0.6c0,0.3,0.2,0.6,0.5,0.6s0.5-0.2,0.5-0.6C110.6,6.5,110.4,6.2,110.1,6.2z M110.1,7.2c-0.2,0-0.4-0.2-0.4-0.4c0-0.2,0.2-0.4,0.4-0.4c0.2,0,0.4,0.2,0.4,0.4S110.3,7.2,110.1,7.2z"></path> <path class="st6" d="M100.5,7.4c0.2,0,0.5,0,0.8-0.1l0.1-1c-0.3,0.1-0.5,0.2-0.8,0.2c-0.5,0-0.8-0.4-0.8-1.1c0-1,0.5-1.6,1.1-1.6 c0.2,0,0.5,0,0.8,0.2l0.1-1c-0.1,0-0.1,0-0.2,0l-0.4-0.1c-0.1,0-0.2,0-0.4,0c-1.2,0-2,1.1-2,2.7C98.9,6.7,99.5,7.4,100.5,7.4z"></path> <path class="st6" d="M98.6,4.7c0.1-0.4,0.2-0.8,0.3-1h0c0,0,0,0-0.1,0c-0.3,0-0.5,0.1-0.7,0.6l0.1-0.5h-0.8l-0.5,3.6h0.9 C98.1,5.2,98.1,4.8,98.6,4.7C98.6,4.7,98.6,4.7,98.6,4.7z"></path> <path class="st6" d="M92.9,7.4c0.2,0,0.4,0,0.6-0.1l0.1-0.8c0,0-0.1,0-0.2,0c-0.2,0-0.3-0.1-0.3-0.3c0,0,0-0.1,0-0.1l0.2-1.5h0.4 L94,3.7h-0.5l0.1-0.5h-0.9l-0.4,2.5l0,0.3l0,0.3c0,0.1,0,0.2,0,0.3C92.2,7.1,92.5,7.4,92.9,7.4z"></path> <path class="st6" d="M90.7,6.6c-0.3,0-0.5,0-0.8-0.1l-0.1,0.8h0l0.1,0c0,0,0.1,0,0.2,0c0.2,0,0.3,0,0.5,0C91.5,7.4,92,7,92,6.2 c0-0.5-0.2-0.8-0.6-1C90.9,5,90.9,5,90.9,4.8c0-0.2,0.1-0.3,0.4-0.3c0.2,0,0.4,0,0.6,0l0.1-0.8c-0.2,0-0.6,0-0.8,0 c-1,0-1.4,0.5-1.4,1.2c0,0.4,0.2,0.8,0.7,1c0.3,0.2,0.4,0.2,0.4,0.4C91.2,6.5,91,6.6,90.7,6.6z"></path> <path class="st6" d="M107.4,7.4c0.3,0,0.6-0.1,0.8-0.4l0,0.3h0.9l0.7-4.4h-0.9l-0.2,1.3c-0.2-0.3-0.5-0.5-0.9-0.5 c-0.8,0-1.4,1-1.4,2.2C106.3,6.8,106.7,7.4,107.4,7.4z M107.9,4.6c0.3,0,0.5,0.2,0.5,0.7c0,0.7-0.3,1.2-0.7,1.2 c-0.3,0-0.5-0.2-0.5-0.7C107.3,5.1,107.6,4.6,107.9,4.6z"></path> <path class="st6" d="M95.5,7.4c0.3,0,0.6,0,0.9-0.1l0.1-0.9c-0.3,0.1-0.6,0.2-0.9,0.2c-0.5,0-0.8-0.2-0.8-0.6c0,0,0,0,0-0.1h1.8 c0.1-0.3,0.1-0.6,0.1-0.9c0-0.8-0.5-1.3-1.2-1.3c-0.9,0-1.5,0.9-1.5,2.1C94,6.8,94.5,7.4,95.5,7.4z M95.5,4.5c0.3,0,0.4,0.2,0.4,0.5 c0,0,0,0.1,0,0.2h-1C95,4.7,95.2,4.5,95.5,4.5z"></path> <polygon class="st6" points="84.3,4 84.3,7.3 85,7.3 86.1,3.9 85.6,7.3 86.5,7.3 87.2,2.9 85.8,2.9 84.9,5.7 84.9,2.9 83.6,2.9 82.9,7.3 83.7,7.3 "></polygon> <path class="st6" d="M88.5,5c-1,0-1.6,0.5-1.6,1.4c0,0.6,0.3,1,0.8,1c0.4,0,0.7-0.1,0.9-0.4v0.4h0.8V7.2V7.1l0-0.2l0-0.2l0.2-1.3 c0-0.4,0-0.5,0-0.7c0-0.7-0.4-1-1.2-1c-0.3,0-0.6,0-1.1,0.2l-0.1,0.8h0l0.1,0c0.2,0,0.5-0.1,0.8-0.1c0.4,0,0.6,0.1,0.6,0.3 c0,0,0,0.1,0,0.2C88.8,5,88.6,5,88.5,5z M88.1,6.6c-0.2,0-0.3-0.1-0.3-0.3c0-0.3,0.2-0.5,0.8-0.5c0,0,0.1,0,0.2,0 C88.8,6.2,88.5,6.6,88.1,6.6z"></path> <path class="st6" d="M103.2,5c-1,0-1.6,0.5-1.6,1.4c0,0.6,0.3,1,0.8,1c0.4,0,0.7-0.1,0.9-0.4v0.4h0.8V7.2V7l0-0.2l0-0.2l0.2-1.3 c0-0.4,0-0.5,0-0.7c0-0.7-0.4-1-1.2-1c-0.3,0-0.6,0-1.1,0.2l-0.1,0.8l0.1,0l0.1,0c0.2,0,0.5-0.1,0.8-0.1c0.4,0,0.6,0.1,0.6,0.3 c0,0,0,0.1,0,0.2C103.5,5,103.3,5,103.2,5z M102.8,6.6c-0.2,0-0.3-0.1-0.3-0.3c0-0.3,0.3-0.5,0.8-0.5c0,0,0.1,0,0.2,0 C103.5,6.2,103.2,6.6,102.8,6.6z"></path> <path class="st6" d="M106.3,4.7C106.3,4.7,106.3,4.7,106.3,4.7c0.1-0.4,0.2-0.8,0.4-1h0c0,0,0,0-0.1,0c-0.3,0-0.5,0.1-0.7,0.6 l0.1-0.5H105l-0.5,3.6h0.9C105.7,5.1,105.8,4.7,106.3,4.7z"></path> <path class="st7" d="M102.4,9.2c-1,0-1.6,0.9-1.6,2.1c0,0.9,0.4,1.6,1.3,1.6c0.9,0,1.6-0.7,1.6-2.1C103.7,9.9,103.3,9.2,102.4,9.2z M102.2,12.1c-0.3,0-0.5-0.3-0.5-0.8c0-0.6,0.2-1.2,0.7-1.2c0.3,0,0.4,0.3,0.4,0.7C102.9,11.6,102.6,12.1,102.2,12.1z"></path> <path class="st7" d="M99.2,10.9c0-1,0.4-1.6,1.1-1.6c0.2,0,0.4,0,0.8,0.2l0.1-1c0,0-0.1,0-0.2,0l-0.3-0.1c-0.1,0-0.2,0-0.4,0 c-1.1,0-1.9,1.1-1.9,2.7c0,1.2,0.6,1.9,1.4,1.9c0.2,0,0.4,0,0.8-0.1l0.1-1c-0.3,0.1-0.5,0.2-0.7,0.2C99.5,12,99.2,11.6,99.2,10.9z"></path> <path class="st7" d="M95.6,9.2C95.6,9.2,95.6,9.2,95.6,9.2c-0.4,0-0.5,0.1-0.8,0.6L95,9.3h-0.8l-0.5,3.6h0.8 c0.3-2.2,0.4-2.6,0.8-2.6c0,0,0,0,0,0C95.4,9.9,95.5,9.5,95.6,9.2L95.6,9.2z"></path> <path class="st7" d="M106.3,8.4l-0.2,1.3c-0.2-0.3-0.5-0.5-0.8-0.5c-0.7,0-1.4,1-1.4,2.2c0,0.9,0.4,1.5,1,1.5c0.3,0,0.5-0.1,0.8-0.4 l0,0.3h0.8l0.6-4.4L106.3,8.4L106.3,8.4z M105.3,11.9c-0.3,0-0.4-0.2-0.4-0.7c0-0.7,0.3-1.2,0.7-1.2c0.3,0,0.4,0.2,0.4,0.7 C106,11.5,105.7,11.9,105.3,11.9z"></path> <path class="st7" d="M87,9.2c-0.8,0-1.4,0.9-1.4,2.1c0,1.1,0.5,1.6,1.4,1.6c0.3,0,0.6,0,0.9-0.1l0.1-0.9c-0.3,0.1-0.6,0.2-0.9,0.2 c-0.5,0-0.7-0.2-0.7-0.6c0,0,0,0,0-0.1H88c0.1-0.3,0.1-0.6,0.1-0.9C88.1,9.7,87.7,9.2,87,9.2z M87.3,10.6h-0.9 c0.1-0.4,0.3-0.6,0.5-0.6c0.2,0,0.4,0.2,0.4,0.5C87.3,10.5,87.3,10.6,87.3,10.6z"></path> <path class="st7" d="M96.9,9.2c-0.8,0-1.4,0.9-1.4,2.1c0,1.1,0.5,1.6,1.4,1.6c0.3,0,0.6,0,0.9-0.1l0.1-0.9c-0.3,0.1-0.6,0.2-0.9,0.2 c-0.5,0-0.7-0.2-0.7-0.6c0,0,0,0,0-0.1H98c0.1-0.3,0.1-0.6,0.1-0.9C98,9.7,97.6,9.2,96.9,9.2z M97.3,10.6h-0.9 c0.1-0.4,0.3-0.6,0.5-0.6s0.4,0.2,0.4,0.5C97.3,10.5,97.3,10.6,97.3,10.6z"></path> <path class="st7" d="M108.6,9.2c-0.8,0-1.4,0.9-1.4,2.1c0,1.1,0.5,1.6,1.4,1.6c0.3,0,0.5,0,0.9-0.1l0.1-0.9 c-0.3,0.1-0.6,0.2-0.9,0.2c-0.5,0-0.7-0.2-0.7-0.6c0,0,0,0,0-0.1h1.6c0.1-0.3,0.1-0.6,0.1-0.9C109.7,9.7,109.3,9.2,108.6,9.2z M108.9,10.6H108c0.1-0.4,0.3-0.6,0.5-0.6s0.4,0.2,0.4,0.5C109,10.5,108.9,10.6,108.9,10.6z"></path> <path class="st7" d="M84.6,9.2c0.3,0,0.5,0.1,0.7,0.2l0.2-0.9c-0.2-0.1-0.6-0.2-1-0.2c-0.7,0-1.4,0.3-1.4,1.5c0,1.3,1.2,1,1.2,1.7 c0,0.5-0.4,0.5-0.7,0.5c-0.3,0-0.6-0.1-0.8-0.2l-0.2,0.9c0.3,0.1,0.7,0.2,1,0.2c0.7,0,1.5-0.3,1.5-1.5c0-1.4-1.2-1.1-1.2-1.7 C84,9.2,84.3,9.2,84.6,9.2z"></path> <path class="st7" d="M88.3,11.3c0,0.9,0.4,1.6,1.2,1.6c0.3,0,0.6,0,0.8-0.1l0.1-0.9c-0.2,0.1-0.3,0.1-0.6,0.1 c-0.3,0-0.6-0.3-0.6-0.8c0-0.7,0.3-1.2,0.8-1.2c0.2,0,0.4,0.1,0.6,0.2l0.2-0.9c-0.2-0.1-0.6-0.2-0.8-0.2C89,9.2,88.3,10.1,88.3,11.3 z"></path> <path class="st7" d="M92.9,9.2l-0.2,1.6c0,0.5-0.3,1-0.7,1c-0.2,0-0.3-0.2-0.3-0.4s0-0.4,0-0.5L92,9.3H91l-0.2,1.6 c0,0.4,0,0.5,0,0.8c0,0.7,0.3,1.2,0.8,1.2s0.7-0.3,1-0.7l0,0l0,0.6h0.8c0-0.3,0-0.6,0.1-0.9l0.4-2.6L92.9,9.2L92.9,9.2z"></path> <polygon class="st7" points="109.9,12.2 110.1,12.2 110.1,12.8 110.2,12.8 110.2,12.2 110.4,12.2 110.4,12 109.9,12 "></polygon> <polygon class="st7" points="110.9,12 110.8,12.6 110.8,12.6 110.7,12 110.5,12 110.5,12.8 110.6,12.8 110.6,12.1 110.7,12.8 110.9,12.8 111,12.1 111,12.8 111.1,12.8 111.1,12 "></polygon> <g> <path class="st0" d="M48,1.6H28.3c-0.9,0-1.6,0.7-1.6,1.6v9.2c0,0.9,0.7,1.6,1.6,1.6H48c0.9,0,1.6-0.7,1.6-1.6V3.2 C49.6,2.3,48.8,1.6,48,1.6z M34.3,12.4h-0.2v-0.5c0-0.2-0.1-0.3-0.2-0.3c-0.1,0-0.2,0.1-0.2,0.3v0.5h-0.2v-0.5 c0-0.2-0.1-0.3-0.2-0.3S33,11.6,33,11.8v0.5h-0.2v-1H33v0.1c0.1-0.1,0.2-0.1,0.3-0.1c0.2,0,0.3,0.1,0.3,0.2 c0.1-0.1,0.2-0.2,0.3-0.2c0.2,0,0.4,0.2,0.4,0.4V12.4z M35.5,11.9v0.5h-0.2v-0.1c-0.1,0.1-0.2,0.1-0.3,0.1c-0.3,0-0.5-0.2-0.5-0.5 s0.2-0.5,0.5-0.5c0.1,0,0.2,0.1,0.3,0.1v-0.1h0.2V11.9z M36.2,12.4c-0.2,0-0.3,0-0.4-0.1l0.1-0.2c0.1,0.1,0.2,0.1,0.3,0.1 s0.2-0.1,0.2-0.1c0-0.1-0.1-0.1-0.2-0.1l-0.1,0c-0.2,0-0.3-0.1-0.3-0.3c0-0.2,0.2-0.3,0.4-0.3c0.2,0,0.3,0,0.4,0.1l-0.1,0.2 c-0.1,0-0.2-0.1-0.3-0.1c-0.1,0-0.2,0-0.2,0.1c0,0.1,0.1,0.1,0.2,0.1l0.1,0c0.2,0,0.3,0.1,0.3,0.3C36.6,12.2,36.4,12.4,36.2,12.4z M37.3,12.4C37,12.4,37,12.2,37,12v-0.5h-0.2v-0.2H37v-0.3h0.2v0.3h0.3v0.2h-0.3V12c0,0.1,0,0.2,0.1,0.2c0.1,0,0.1,0,0.2-0.1 l0.1,0.2C37.5,12.3,37.4,12.4,37.3,12.4z M38.6,12h-0.7c0,0.2,0.2,0.2,0.3,0.2c0.1,0,0.2,0,0.3-0.1l0.1,0.2 c-0.1,0.1-0.3,0.1-0.4,0.1c-0.3,0-0.5-0.2-0.5-0.5c0-0.3,0.2-0.5,0.5-0.5C38.5,11.3,38.6,11.6,38.6,12C38.6,11.9,38.6,11.9,38.6,12 z M39.4,11.6c0,0-0.1,0-0.1,0c-0.1,0-0.2,0.1-0.2,0.3v0.6h-0.2v-1h0.2v0.1c0.1-0.1,0.1-0.1,0.3-0.1c0,0,0.1,0,0.1,0L39.4,11.6z M40.1,12.2c0.1,0,0.2,0,0.3-0.1l0.1,0.2c-0.1,0.1-0.2,0.1-0.3,0.1c-0.3,0-0.5-0.2-0.5-0.5s0.2-0.5,0.5-0.5c0.1,0,0.2,0,0.3,0.1 l-0.1,0.2c-0.1-0.1-0.2-0.1-0.3-0.1c-0.2,0-0.3,0.1-0.3,0.3C39.8,12.1,39.9,12.2,40.1,12.2z M41.5,11.9v0.5h-0.2v-0.1 c-0.1,0.1-0.2,0.1-0.3,0.1c-0.3,0-0.5-0.2-0.5-0.5s0.2-0.5,0.5-0.5c0.1,0,0.2,0.1,0.3,0.1v-0.1h0.2V11.9z M42.4,11.6 c0,0-0.1,0-0.1,0c-0.1,0-0.2,0.1-0.2,0.3v0.6h-0.2v-1H42v0.1c0.1-0.1,0.1-0.1,0.3-0.1c0,0,0.1,0,0.1,0L42.4,11.6z M43.5,11.9v0.5 h-0.2v-0.1c-0.1,0.1-0.2,0.1-0.3,0.1c-0.3,0-0.5-0.2-0.5-0.5s0.2-0.5,0.5-0.5c0.1,0,0.2,0.1,0.3,0.1V11h0.2V11.9z M40.4,10.5 c-0.9,0-1.7-0.3-2.3-0.8c-0.6,0.5-1.4,0.8-2.3,0.8c-2,0-3.7-1.7-3.7-3.7s1.7-3.7,3.7-3.7c0.9,0,1.7,0.3,2.3,0.8 c0.6-0.5,1.4-0.8,2.3-0.8c2,0,3.7,1.7,3.7,3.7C44.1,8.8,42.5,10.5,40.4,10.5z"></path> <path class="st8" d="M39.5,6.8c0-1.2-0.6-2.2-1.4-2.9c-0.9,0.7-1.4,1.7-1.4,2.9s0.6,2.2,1.4,2.9C39,9,39.5,8,39.5,6.8z"></path> <path class="st9" d="M36.5,3.9h1.6c-0.6-0.5-1.4-0.8-2.3-0.8c-2,0-3.7,1.7-3.7,3.7s1.7,3.7,3.7,3.7c0.9,0,1.7-0.3,2.3-0.8h-1.6V3.9 z"></path> <path class="st9" d="M36.7,6.8c0-1.2,0.6-2.2,1.4-2.9h-1.6v5.8h1.6C37.3,9,36.7,8,36.7,6.8z"></path> <path class="st10" d="M40.4,3.1c-0.9,0-1.7,0.3-2.3,0.8h1.6v5.8h-1.6c0.6,0.5,1.4,0.8,2.3,0.8c2,0,3.7-1.7,3.7-3.7 C44.1,4.8,42.5,3.1,40.4,3.1z"></path> <path class="st10" d="M39.7,3.9h-1.6c0.9,0.7,1.4,1.7,1.4,2.9S39,9,38.1,9.7h1.6V3.9z"></path> <path class="st0" d="M41.1,11.5c-0.2,0-0.3,0.1-0.3,0.3c0,0.2,0.1,0.3,0.3,0.3c0.2,0,0.3-0.1,0.3-0.3 C41.4,11.7,41.2,11.5,41.1,11.5z"></path> <path class="st0" d="M38.2,11.5c-0.2,0-0.2,0.1-0.3,0.2h0.5C38.4,11.6,38.3,11.5,38.2,11.5z"></path> <path class="st0" d="M43,11.5c-0.2,0-0.3,0.1-0.3,0.3c0,0.2,0.1,0.3,0.3,0.3c0.2,0,0.3-0.1,0.3-0.3C43.3,11.7,43.2,11.5,43,11.5z"></path> <path class="st0" d="M35,11.5c-0.2,0-0.3,0.1-0.3,0.3c0,0.2,0.1,0.3,0.3,0.3c0.2,0,0.3-0.1,0.3-0.3C35.3,11.7,35.2,11.5,35,11.5z"></path> <path d="M36.3,11.8l-0.1,0c-0.1,0-0.2,0-0.2-0.1c0-0.1,0.1-0.1,0.2-0.1c0.1,0,0.2,0.1,0.3,0.1l0.1-0.2c-0.1-0.1-0.2-0.1-0.4-0.1 c-0.2,0-0.4,0.1-0.4,0.3c0,0.2,0.1,0.3,0.3,0.3l0.1,0c0.1,0,0.2,0.1,0.2,0.1c0,0.1-0.1,0.1-0.2,0.1s-0.3-0.1-0.3-0.1l-0.1,0.2 c0.1,0.1,0.3,0.1,0.4,0.1c0.3,0,0.5-0.1,0.5-0.3C36.6,11.9,36.5,11.8,36.3,11.8z"></path> <path d="M37.3,12.2c-0.1,0-0.1-0.1-0.1-0.2v-0.4h0.3v-0.2h-0.3v-0.3H37v0.3h-0.2v0.2H37V12c0,0.2,0.1,0.4,0.3,0.4 c0.1,0,0.2,0,0.3-0.1l-0.1-0.2C37.4,12.2,37.4,12.2,37.3,12.2z"></path> <path d="M35.3,11.5c-0.1-0.1-0.2-0.1-0.3-0.1c-0.3,0-0.5,0.2-0.5,0.5s0.2,0.5,0.5,0.5c0.1,0,0.2-0.1,0.3-0.1v0.1h0.2v-0.5v-0.5 h-0.2V11.5z M35,12.2c-0.2,0-0.3-0.1-0.3-0.3c0-0.2,0.1-0.3,0.3-0.3c0.2,0,0.3,0.1,0.3,0.3C35.3,12,35.2,12.2,35,12.2z"></path> <path d="M33.9,11.4c-0.1,0-0.3,0-0.3,0.2c-0.1-0.1-0.2-0.2-0.3-0.2c-0.1,0-0.2,0-0.3,0.1v-0.1h-0.2v1H33v-0.5 c0-0.2,0.1-0.3,0.2-0.3s0.2,0.1,0.2,0.3v0.5h0.2v-0.5c0-0.2,0.1-0.3,0.2-0.3c0.1,0,0.2,0.1,0.2,0.3v0.5h0.2v-0.6 C34.3,11.5,34.2,11.4,33.9,11.4z"></path> <path d="M38.2,11.3c-0.3,0-0.5,0.2-0.5,0.5c0,0.3,0.2,0.5,0.5,0.5c0.1,0,0.3,0,0.4-0.1l-0.1-0.2c-0.1,0.1-0.2,0.1-0.3,0.1 c-0.1,0-0.3-0.1-0.3-0.2h0.7c0,0,0-0.1,0-0.1C38.6,11.6,38.5,11.3,38.2,11.3z M37.9,11.8c0-0.1,0.1-0.2,0.3-0.2 c0.1,0,0.2,0.1,0.2,0.2H37.9z"></path> <path d="M43.3,11.5c-0.1-0.1-0.2-0.1-0.3-0.1c-0.3,0-0.5,0.2-0.5,0.5s0.2,0.5,0.5,0.5c0.1,0,0.2-0.1,0.3-0.1v0.1h0.2v-0.5V11h-0.2 V11.5z M43,12.2c-0.2,0-0.3-0.1-0.3-0.3c0-0.2,0.1-0.3,0.3-0.3c0.2,0,0.3,0.1,0.3,0.3C43.3,12,43.2,12.2,43,12.2z"></path> <path d="M39.1,11.5v-0.1h-0.2v1h0.2v-0.6c0-0.2,0.1-0.3,0.2-0.3c0,0,0.1,0,0.1,0l0.1-0.2c0,0-0.1,0-0.1,0 C39.2,11.3,39.1,11.4,39.1,11.5z"></path> <path d="M42,11.5v-0.1h-0.2v1H42v-0.6c0-0.2,0.1-0.3,0.2-0.3c0,0,0.1,0,0.1,0l0.1-0.2c0,0-0.1,0-0.1,0C42.2,11.3,42.1,11.4,42,11.5 z"></path> <path d="M40.1,11.5c0.1,0,0.2,0,0.3,0.1l0.1-0.2c-0.1-0.1-0.2-0.1-0.3-0.1c-0.3,0-0.5,0.2-0.5,0.5s0.2,0.5,0.5,0.5 c0.1,0,0.2,0,0.3-0.1l-0.1-0.2c-0.1,0.1-0.2,0.1-0.3,0.1c-0.2,0-0.3-0.1-0.3-0.3C39.8,11.7,39.9,11.6,40.1,11.5z"></path> <path d="M41.3,11.5c-0.1-0.1-0.2-0.1-0.3-0.1c-0.3,0-0.5,0.2-0.5,0.5s0.2,0.5,0.5,0.5c0.1,0,0.2-0.1,0.3-0.1v0.1h0.2v-0.5v-0.5 h-0.2V11.5z M41.1,12.2c-0.2,0-0.3-0.1-0.3-0.3c0-0.2,0.1-0.3,0.3-0.3c0.2,0,0.3,0.1,0.3,0.3C41.4,12,41.2,12.2,41.1,12.2z"></path> </g> </svg>