<svg width="391" height="589" viewBox="0 0 391 589" fill="none" xmlns="http://www.w3.org/2000/svg">
<mask id="path-1-inside-1_12_3" fill="white">
<path fill-rule="evenodd" clip-rule="evenodd" d="M255.371 79.1906C258.008 59.7006 263.974 19.781 266.743 16.0222C270.203 11.3237 219.773 -6.42611 153.521 2.4488C110.836 16.1962 21.8076 66.9746 7.17283 160.109C5.35997 178.207 3.81079 219.31 12.117 238.939C6.51361 255.819 -3.50661 298.557 1.23981 334.475C3.87671 347.526 13.6003 378.64 31.3993 398.687C24.9719 411.738 12.117 443.793 12.117 467.598C10.7986 481.52 11.8204 515.836 26.4552 541.73C27.1181 542.707 27.8293 543.784 28.5932 544.94L28.5969 544.946C38.8491 560.463 58.5794 590.327 98.1458 588.005C140.299 585.532 154.074 559.468 172.808 524.022L173.297 523.095C172.968 516.309 169.639 510.824 156.982 529.201C147.752 543.47 123.163 570.652 98.6403 565.222C83.3133 563.134 51.6705 547.681 47.7151 502.576C45.9023 486.044 44.9464 446.403 55.6258 420.091C61.3941 422.876 78.0724 426.774 98.6403 420.091C106.551 417.655 123.757 412.156 129.294 409.65C126.163 427.748 115.648 466.032 98.6403 474.385C94.0257 477.865 78.9624 485.139 55.6258 486.392V502.576C66.5031 500.488 92.8061 496.416 111.001 496.833C142.479 498.747 207.808 502.576 217.301 502.576C237.242 502.054 284.739 494.327 315.196 467.598C326.567 458.375 352.178 433.874 363.649 409.65C370.241 393.467 381.052 354.208 371.559 326.644C366.45 309.068 344.663 272.664 298.385 267.652C301.713 266.355 305.756 265.088 310.327 263.655C324.771 259.128 344.495 252.945 363.649 238.939C387.725 221.332 389.392 184.516 390.365 163.047L390.365 163.044C390.411 162.03 390.455 161.051 390.5 160.109C391.5 139.227 368.098 113.751 330.522 95.3743C319.316 91.1978 288.596 82.1141 255.371 79.1906ZM210.873 19.6765C238.165 27.6117 243.999 64.0511 243.505 81.2788L198.018 87.0214C175.473 91.6155 142.808 105.641 129.294 112.08C104.375 119.598 64.1958 159.065 47.2207 177.859C46.8252 159.482 53.428 135.645 69.964 100.073C86.5 64.5 126.328 37.0783 142.643 26.4632C168.353 9.75753 198.842 14.9781 210.873 19.6765ZM169.342 150.712C189.778 147.754 232.232 141.315 238.561 139.227L248.943 136.616L235.594 184.123C239.714 183.079 246.076 184.437 238.561 198.219H232.628L215.817 270.262C231.804 270.436 268.522 266.921 287.508 251.468C290.231 248.927 294.168 245.681 298.631 242.002L298.632 242.001C312.81 230.313 332.293 214.253 335 202.5C337.307 189.449 336.06 162.824 330.522 150.712C324.754 138.705 298.089 108.53 255.371 102.683C236.253 102.335 191.69 104.771 166.376 117.3C150.554 124.435 116.143 141.524 105.068 152.8C96.0034 159.587 73.0294 179.738 53.6482 206.05L47.2207 215.447C48.0448 227.976 55.0325 255.958 76.3914 267.652C84.9613 272.524 109.5 282.5 129.294 280.181C143.268 278.544 147.615 276.096 153.833 272.594C156.423 271.135 159.338 269.494 163.409 267.652L178.242 215.447C181.043 208.486 177.846 195.713 142.643 200.307C142.643 195.608 144.423 186.42 151.543 187.256H184.175C185.658 181.339 185.559 169.401 173.297 168.984H163.409C164.068 163.085 166.178 151.173 169.342 150.712ZM180.219 413.305C173.891 437.528 160.113 461.334 154.015 470.208C192.778 486.079 234.111 476.821 249.932 470.208C269.313 463.944 285.695 444.976 291.463 436.275C295.023 431.263 304.483 412.957 308.768 404.43C313.119 393.571 314.866 370.67 315.196 360.577C315.196 344.289 307.285 326.296 303.329 319.335C293.837 307.223 275.312 298.627 267.237 295.843C245.087 289.578 220.102 291.492 210.379 293.232C208.006 297.409 205.435 312.374 204.446 319.335C208.401 321.006 210.049 323.164 210.379 324.034C208.401 327.792 203.951 347.874 201.974 357.445C198.809 372.48 199.007 387.028 199.502 392.423H188.13V384.592L180.219 413.305ZM26.4552 267.652C23.4886 281.399 18.94 313.488 24.4775 331.864C27.2792 340.043 36.3435 357.967 50.1872 364.232L79.3579 334.475C89.7407 326.818 112.385 311.504 119.9 311.504C125.339 309.938 139.776 306.701 154.015 306.284C155.169 306.284 158.069 302.629 160.443 288.012C152.202 291.492 132.755 298.975 117.923 300.541C103.09 302.107 86.082 302.316 71.4472 298.975C59.5812 294.799 33.9703 282.687 26.4552 267.652ZM73.9193 395.033C75.897 389.603 73.0953 383.374 71.4472 380.937C74.6115 369.661 93.8609 348.048 103.09 338.651C119.307 321.945 142.149 318.813 151.543 319.335C153.521 329.575 139.842 359.101 132.755 372.585C126.031 386.367 111.825 398.165 105.562 402.342C91.7184 409.859 78.6987 400.601 73.9193 395.033Z"/>
</mask>
<path fill-rule="evenodd" clip-rule="evenodd" d="M255.371 79.1906C258.008 59.7006 263.974 19.781 266.743 16.0222C270.203 11.3237 219.773 -6.42611 153.521 2.4488C110.836 16.1962 21.8076 66.9746 7.17283 160.109C5.35997 178.207 3.81079 219.31 12.117 238.939C6.51361 255.819 -3.50661 298.557 1.23981 334.475C3.87671 347.526 13.6003 378.64 31.3993 398.687C24.9719 411.738 12.117 443.793 12.117 467.598C10.7986 481.52 11.8204 515.836 26.4552 541.73C27.1181 542.707 27.8293 543.784 28.5932 544.94L28.5969 544.946C38.8491 560.463 58.5794 590.327 98.1458 588.005C140.299 585.532 154.074 559.468 172.808 524.022L173.297 523.095C172.968 516.309 169.639 510.824 156.982 529.201C147.752 543.47 123.163 570.652 98.6403 565.222C83.3133 563.134 51.6705 547.681 47.7151 502.576C45.9023 486.044 44.9464 446.403 55.6258 420.091C61.3941 422.876 78.0724 426.774 98.6403 420.091C106.551 417.655 123.757 412.156 129.294 409.65C126.163 427.748 115.648 466.032 98.6403 474.385C94.0257 477.865 78.9624 485.139 55.6258 486.392V502.576C66.5031 500.488 92.8061 496.416 111.001 496.833C142.479 498.747 207.808 502.576 217.301 502.576C237.242 502.054 284.739 494.327 315.196 467.598C326.567 458.375 352.178 433.874 363.649 409.65C370.241 393.467 381.052 354.208 371.559 326.644C366.45 309.068 344.663 272.664 298.385 267.652C301.713 266.355 305.756 265.088 310.327 263.655C324.771 259.128 344.495 252.945 363.649 238.939C387.725 221.332 389.392 184.516 390.365 163.047L390.365 163.044C390.411 162.03 390.455 161.051 390.5 160.109C391.5 139.227 368.098 113.751 330.522 95.3743C319.316 91.1978 288.596 82.1141 255.371 79.1906ZM210.873 19.6765C238.165 27.6117 243.999 64.0511 243.505 81.2788L198.018 87.0214C175.473 91.6155 142.808 105.641 129.294 112.08C104.375 119.598 64.1958 159.065 47.2207 177.859C46.8252 159.482 53.428 135.645 69.964 100.073C86.5 64.5 126.328 37.0783 142.643 26.4632C168.353 9.75753 198.842 14.9781 210.873 19.6765ZM169.342 150.712C189.778 147.754 232.232 141.315 238.561 139.227L248.943 136.616L235.594 184.123C239.714 183.079 246.076 184.437 238.561 198.219H232.628L215.817 270.262C231.804 270.436 268.522 266.921 287.508 251.468C290.231 248.927 294.168 245.681 298.631 242.002L298.632 242.001C312.81 230.313 332.293 214.253 335 202.5C337.307 189.449 336.06 162.824 330.522 150.712C324.754 138.705 298.089 108.53 255.371 102.683C236.253 102.335 191.69 104.771 166.376 117.3C150.554 124.435 116.143 141.524 105.068 152.8C96.0034 159.587 73.0294 179.738 53.6482 206.05L47.2207 215.447C48.0448 227.976 55.0325 255.958 76.3914 267.652C84.9613 272.524 109.5 282.5 129.294 280.181C143.268 278.544 147.615 276.096 153.833 272.594C156.423 271.135 159.338 269.494 163.409 267.652L178.242 215.447C181.043 208.486 177.846 195.713 142.643 200.307C142.643 195.608 144.423 186.42 151.543 187.256H184.175C185.658 181.339 185.559 169.401 173.297 168.984H163.409C164.068 163.085 166.178 151.173 169.342 150.712ZM180.219 413.305C173.891 437.528 160.113 461.334 154.015 470.208C192.778 486.079 234.111 476.821 249.932 470.208C269.313 463.944 285.695 444.976 291.463 436.275C295.023 431.263 304.483 412.957 308.768 404.43C313.119 393.571 314.866 370.67 315.196 360.577C315.196 344.289 307.285 326.296 303.329 319.335C293.837 307.223 275.312 298.627 267.237 295.843C245.087 289.578 220.102 291.492 210.379 293.232C208.006 297.409 205.435 312.374 204.446 319.335C208.401 321.006 210.049 323.164 210.379 324.034C208.401 327.792 203.951 347.874 201.974 357.445C198.809 372.48 199.007 387.028 199.502 392.423H188.13V384.592L180.219 413.305ZM26.4552 267.652C23.4886 281.399 18.94 313.488 24.4775 331.864C27.2792 340.043 36.3435 357.967 50.1872 364.232L79.3579 334.475C89.7407 326.818 112.385 311.504 119.9 311.504C125.339 309.938 139.776 306.701 154.015 306.284C155.169 306.284 158.069 302.629 160.443 288.012C152.202 291.492 132.755 298.975 117.923 300.541C103.09 302.107 86.082 302.316 71.4472 298.975C59.5812 294.799 33.9703 282.687 26.4552 267.652ZM73.9193 395.033C75.897 389.603 73.0953 383.374 71.4472 380.937C74.6115 369.661 93.8609 348.048 103.09 338.651C119.307 321.945 142.149 318.813 151.543 319.335C153.521 329.575 139.842 359.101 132.755 372.585C126.031 386.367 111.825 398.165 105.562 402.342C91.7184 409.859 78.6987 400.601 73.9193 395.033Z" fill="white"/>
<path d="M173.25 524.256C173.413 523.948 173.576 523.639 173.739 523.329L172.855 522.862C172.692 523.171 172.528 523.48 172.365 523.789L173.25 524.256ZM28.176 545.216C28.1764 545.216 28.1768 545.217 28.1775 545.218C28.1781 545.219 28.1789 545.22 28.1798 545.221L29.0141 544.67C29.0137 544.669 29.0133 544.669 29.0126 544.668C29.0121 544.667 29.0112 544.666 29.0104 544.664L28.176 545.216ZM390.864 163.07C390.864 163.074 390.864 163.078 390.864 163.077C390.864 163.077 390.864 163.075 390.864 163.074C390.864 163.072 390.864 163.07 390.864 163.067L389.865 163.022C389.865 163.017 389.866 163.014 389.866 163.015C389.866 163.015 389.865 163.016 389.865 163.018C389.865 163.019 389.865 163.022 389.865 163.025L390.864 163.07ZM255.371 79.1906L254.38 79.0566L254.239 80.0949L255.283 80.1868L255.371 79.1906ZM266.743 16.0222L265.937 15.4291L266.743 16.0222ZM153.521 2.4488L153.388 1.45765L153.299 1.46953L153.214 1.49695L153.521 2.4488ZM7.17283 160.109L6.18495 159.954L6.18061 159.981L6.17781 160.009L7.17283 160.109ZM12.117 238.939L13.0661 239.254L13.1848 238.896L13.038 238.549L12.117 238.939ZM1.23981 334.475L0.248426 334.606L0.25288 334.639L0.259613 334.673L1.23981 334.475ZM31.3993 398.687L32.2965 399.129L32.5934 398.526L32.1471 398.023L31.3993 398.687ZM12.117 467.598L13.1126 467.692L13.117 467.645V467.598H12.117ZM26.4552 541.73L25.5846 542.222L25.6046 542.257L25.6275 542.291L26.4552 541.73ZM98.1458 588.005L98.2044 589.003L98.2044 589.003L98.1458 588.005ZM173.297 523.095L174.182 523.563L174.31 523.32L174.296 523.047L173.297 523.095ZM156.982 529.201L156.158 528.633L156.15 528.645L156.142 528.657L156.982 529.201ZM98.6403 565.222L98.8564 564.246L98.8161 564.237L98.7752 564.231L98.6403 565.222ZM47.7151 502.576L48.7113 502.488L48.7104 502.478L48.7092 502.467L47.7151 502.576ZM55.6258 420.091L56.0605 419.191L55.1003 418.727L54.6993 419.715L55.6258 420.091ZM98.6403 420.091L98.3459 419.136L98.3386 419.138L98.3313 419.14L98.6403 420.091ZM129.294 409.65L130.28 409.821L130.601 407.961L128.882 408.739L129.294 409.65ZM98.6403 474.385L98.1994 473.487L98.114 473.529L98.0381 473.587L98.6403 474.385ZM55.6258 486.392L55.5722 485.394L54.6258 485.444V486.392H55.6258ZM55.6258 502.576H54.6258V503.786L55.8144 503.558L55.6258 502.576ZM111.001 496.833L111.061 495.835L111.043 495.834L111.024 495.833L111.001 496.833ZM217.301 502.576V503.576H217.314L217.327 503.575L217.301 502.576ZM315.196 467.598L314.566 466.822L314.551 466.834L314.536 466.847L315.196 467.598ZM363.649 409.65L364.552 410.078L364.564 410.053L364.575 410.028L363.649 409.65ZM371.559 326.644L370.599 326.923L370.606 326.946L370.614 326.969L371.559 326.644ZM298.385 267.652L298.022 266.72L298.278 268.646L298.385 267.652ZM363.649 238.939L364.239 239.746L364.239 239.746L363.649 238.939ZM390.5 160.109L389.501 160.061L389.501 160.061L390.5 160.109ZM330.522 95.3743L330.962 94.4759L330.918 94.4544L330.872 94.4372L330.522 95.3743ZM243.505 81.2788L243.63 82.2709L244.48 82.1637L244.504 81.3075L243.505 81.2788ZM210.873 19.6765L210.509 20.608L210.551 20.6243L210.594 20.6368L210.873 19.6765ZM142.643 26.4632L142.099 25.6247L142.098 25.625L142.643 26.4632ZM47.2207 177.859L46.221 177.88L46.2751 180.397L47.9628 178.529L47.2207 177.859ZM129.294 112.08L129.583 113.037L129.656 113.015L129.724 112.983L129.294 112.08ZM198.018 87.0214L197.893 86.0293L197.856 86.034L197.819 86.0415L198.018 87.0214ZM26.4552 267.652L27.3496 267.205L26.0777 264.66L25.4777 267.441L26.4552 267.652ZM24.4775 331.864L23.52 332.153L23.5254 332.171L23.5315 332.188L24.4775 331.864ZM50.1872 364.232L49.775 365.143L50.4119 365.431L50.9014 364.932L50.1872 364.232ZM79.3579 334.475L78.7644 333.67L78.6999 333.717L78.6438 333.775L79.3579 334.475ZM119.9 311.504V312.504H120.041L120.177 312.465L119.9 311.504ZM154.015 306.284V305.284H154L153.986 305.284L154.015 306.284ZM160.443 288.012L161.43 288.172L161.719 286.387L160.053 287.091L160.443 288.012ZM71.4472 298.975L71.1152 299.918L71.169 299.937L71.2247 299.95L71.4472 298.975ZM71.4472 380.937L70.4844 380.667L70.3591 381.114L70.619 381.498L71.4472 380.937ZM73.9193 395.033L72.9797 394.691L72.7795 395.24L73.1605 395.684L73.9193 395.033ZM105.562 402.342L106.039 403.22L106.079 403.199L106.117 403.174L105.562 402.342ZM132.755 372.585L131.87 372.119L131.863 372.133L131.856 372.146L132.755 372.585ZM151.543 319.335L152.525 319.145L152.377 318.38L151.599 318.337L151.543 319.335ZM103.09 338.651L103.803 339.352L103.808 339.348L103.09 338.651ZM154.015 470.208L153.191 469.642L152.489 470.664L153.636 471.134L154.015 470.208ZM180.219 413.305L179.255 413.039L179.252 413.052L180.219 413.305ZM188.13 384.592H189.13L187.166 384.326L188.13 384.592ZM188.13 392.423H187.13V393.423H188.13V392.423ZM199.502 392.423V393.423H200.597L200.497 392.331L199.502 392.423ZM201.974 357.445L202.952 357.651L202.953 357.647L201.974 357.445ZM210.379 324.034L211.264 324.499L211.474 324.101L211.314 323.679L210.379 324.034ZM204.446 319.335L203.456 319.194L203.347 319.957L204.057 320.256L204.446 319.335ZM210.379 293.232L210.203 292.248L209.741 292.331L209.509 292.738L210.379 293.232ZM267.237 295.843L267.563 294.897L267.536 294.888L267.509 294.88L267.237 295.843ZM303.329 319.335L304.199 318.841L304.162 318.777L304.117 318.718L303.329 319.335ZM315.196 360.577L316.195 360.61L316.196 360.594V360.577H315.196ZM308.768 404.43L309.662 404.879L309.681 404.841L309.696 404.802L308.768 404.43ZM291.463 436.275L290.648 435.696L290.639 435.709L290.63 435.722L291.463 436.275ZM249.932 470.208L249.625 469.257L249.585 469.27L249.547 469.286L249.932 470.208ZM169.342 150.712L169.199 149.722L169.198 149.722L169.342 150.712ZM238.561 139.227L238.317 138.257L238.282 138.266L238.247 138.277L238.561 139.227ZM248.943 136.616L249.906 136.887L250.373 135.226L248.7 135.647L248.943 136.616ZM235.594 184.123L234.631 183.853L234.164 185.517L235.84 185.093L235.594 184.123ZM238.561 198.219V199.219H239.154L239.439 198.697L238.561 198.219ZM232.628 198.219V197.219H231.834L231.654 197.992L232.628 198.219ZM215.817 270.262L214.844 270.035L214.56 271.248L215.807 271.262L215.817 270.262ZM287.508 251.468L288.139 252.244L288.166 252.222L288.19 252.199L287.508 251.468ZM335 202.5L335.974 202.724L335.98 202.699L335.985 202.674L335 202.5ZM330.522 150.712L331.432 150.296L331.428 150.287L331.424 150.279L330.522 150.712ZM255.371 102.683L255.507 101.692L255.448 101.684L255.389 101.683L255.371 102.683ZM166.376 117.3L166.787 118.212L166.803 118.205L166.819 118.197L166.376 117.3ZM105.068 152.8L105.667 153.601L105.728 153.555L105.781 153.501L105.068 152.8ZM53.6482 206.05L52.843 205.456L52.8327 205.471L52.8228 205.485L53.6482 206.05ZM47.2207 215.447L46.3953 214.882L46.2002 215.167L46.2229 215.512L47.2207 215.447ZM76.3914 267.652L76.8857 266.783L76.8787 266.779L76.8717 266.775L76.3914 267.652ZM129.294 280.181L129.178 279.188L129.178 279.188L129.294 280.181ZM163.409 267.652L163.821 268.563L164.244 268.372L164.371 267.925L163.409 267.652ZM178.242 215.447L177.314 215.073L177.294 215.122L177.28 215.173L178.242 215.447ZM142.643 200.307H141.643V201.446L142.773 201.299L142.643 200.307ZM151.543 187.256L151.426 188.249L151.485 188.256H151.543V187.256ZM184.175 187.256V188.256H184.955L185.145 187.499L184.175 187.256ZM173.297 168.984L173.331 167.984L173.314 167.984H173.297V168.984ZM163.409 168.984L162.415 168.873L162.291 169.984H163.409V168.984ZM172.808 524.022L171.923 523.555L171.923 523.555L172.808 524.022ZM28.5969 544.946L27.762 545.496L27.7626 545.497L28.5969 544.946ZM310.327 263.655L310.028 262.701L310.028 262.701L310.327 263.655ZM390.365 163.047L389.366 162.991L389.366 163.002L390.365 163.047ZM390.365 163.044L391.363 163.1L391.364 163.089L390.365 163.044ZM28.5932 544.94L29.4281 544.39L29.4275 544.389L28.5932 544.94ZM153.833 272.594L153.343 271.723L153.343 271.723L153.833 272.594ZM298.632 242.001L297.996 241.229L297.987 241.236L297.979 241.244L298.632 242.001ZM298.631 242.002L299.267 242.773L299.276 242.766L299.285 242.758L298.631 242.002ZM256.362 79.3247C257.679 69.5862 259.829 54.7451 261.993 41.8731C263.076 35.4355 264.161 29.5018 265.146 24.9487C265.639 22.6706 266.103 20.7526 266.527 19.2956C266.739 18.5666 266.937 17.9663 267.119 17.5003C267.308 17.0169 267.455 16.741 267.548 16.6153L265.937 15.4291C265.684 15.7732 265.46 16.2497 265.256 16.7735C265.045 17.3148 264.828 17.9765 264.607 18.7369C264.164 20.2586 263.688 22.2282 263.191 24.5258C262.196 29.1238 261.106 35.0929 260.021 41.5414C257.852 54.4413 255.699 69.305 254.38 79.0566L256.362 79.3247ZM267.548 16.6153C268.04 15.9465 267.983 15.1821 267.661 14.5462C267.368 13.9661 266.835 13.43 266.203 12.9373C264.92 11.937 262.878 10.8521 260.211 9.74729C254.854 7.52752 246.734 5.12936 236.462 3.1633C215.909 -0.770524 186.63 -2.99532 153.388 1.45765L153.653 3.43994C186.664 -0.981987 215.726 1.23067 236.086 5.12764C246.271 7.07698 254.251 9.44256 259.446 11.595C262.055 12.6763 263.903 13.6796 264.974 14.5146C265.519 14.9396 265.78 15.258 265.877 15.4497C265.946 15.5857 265.877 15.5106 265.937 15.4291L267.548 16.6153ZM153.214 1.49695C131.751 8.40942 98.699 24.6062 69.165 50.7601C39.6242 76.9201 13.5484 113.093 6.18495 159.954L8.16071 160.264C15.4321 113.99 41.1878 78.207 70.491 52.2574C99.8011 26.3017 132.605 10.2356 153.827 3.40065L153.214 1.49695ZM6.17781 160.009C5.26775 169.094 4.42491 183.938 4.85066 198.978C5.27532 213.979 6.96404 229.327 11.1961 239.329L13.038 238.549C8.96377 228.921 7.27396 213.903 6.84986 198.921C6.42686 183.978 7.26505 169.221 8.16785 160.209L6.17781 160.009ZM11.1679 238.624C5.54363 255.567 -4.52655 298.472 0.248426 334.606L2.23119 334.344C-2.48668 298.642 7.48358 256.071 13.0661 239.254L11.1679 238.624ZM0.259613 334.673C2.91108 347.796 12.6819 379.112 30.6516 399.351L32.1471 398.023C14.5187 378.169 4.84233 347.256 2.22 334.277L0.259613 334.673ZM30.5022 398.245C27.2674 404.814 22.4279 416.136 18.395 428.807C14.3664 441.463 11.117 455.543 11.117 467.598H13.117C13.117 455.848 16.2951 441.998 20.3008 429.413C24.3022 416.842 29.1038 405.612 32.2965 399.129L30.5022 398.245ZM11.1215 467.504C9.79387 481.522 10.8068 516.075 25.5846 542.222L27.3257 541.238C12.834 515.597 11.8033 481.517 13.1126 467.692L11.1215 467.504ZM174.296 523.047C174.212 521.302 173.933 519.533 173.294 518.176C172.641 516.79 171.505 515.656 169.731 515.712C168.12 515.763 166.276 516.811 164.141 518.81C161.969 520.844 159.341 524.012 156.158 528.633L157.805 529.768C160.951 525.201 163.485 522.164 165.508 520.27C167.567 518.341 168.949 517.738 169.794 517.711C170.475 517.69 171.024 518.051 171.484 519.028C171.958 520.034 172.219 521.495 172.299 523.144L174.296 523.047ZM156.142 528.657C151.576 535.717 143.196 545.987 132.94 553.803C122.662 561.636 110.69 566.866 98.8564 564.246L98.4241 566.199C111.113 569.008 123.698 563.362 134.152 555.394C144.629 547.409 153.158 536.953 157.821 529.744L156.142 528.657ZM98.7752 564.231C83.8208 562.194 52.6184 547.043 48.7113 502.488L46.719 502.663C50.7226 548.319 82.8058 564.074 98.5053 566.213L98.7752 564.231ZM48.7092 502.467C47.8086 494.254 47.1182 480.266 47.9843 465.058C48.8511 449.837 51.273 433.475 56.5524 420.467L54.6993 419.715C49.2993 433.019 46.8594 449.634 45.9875 464.944C45.1149 480.267 45.8088 494.366 46.7211 502.685L48.7092 502.467ZM55.1911 420.992C61.1948 423.89 78.1398 427.803 98.9492 421.042L98.3313 419.14C78.0051 425.744 61.5933 421.861 56.0605 419.191L55.1911 420.992ZM98.9346 421.047C106.818 418.619 124.097 413.1 129.706 410.561L128.882 408.739C123.416 411.213 106.284 416.691 98.3459 419.136L98.9346 421.047ZM128.309 409.48C126.752 418.477 123.357 432.502 118.242 445.301C115.685 451.7 112.71 457.763 109.338 462.73C105.957 467.708 102.23 471.508 98.1994 473.487L99.0811 475.283C103.554 473.086 107.52 468.968 110.992 463.853C114.473 458.727 117.511 452.521 120.1 446.043C125.277 433.087 128.705 418.922 130.28 409.821L128.309 409.48ZM98.0381 473.587C93.6135 476.924 78.7529 484.149 55.5722 485.394L55.6795 487.391C79.1718 486.129 94.4379 478.807 99.2424 475.183L98.0381 473.587ZM54.6258 486.392V502.576H56.6258V486.392H54.6258ZM55.8144 503.558C66.6777 501.472 92.8944 497.418 110.978 497.833L111.024 495.833C92.7178 495.413 66.3284 499.503 55.4373 501.594L55.8144 503.558ZM110.94 497.831C142.39 499.744 207.768 503.576 217.301 503.576V501.576C207.848 501.576 142.567 497.751 111.061 495.835L110.94 497.831ZM217.327 503.575C227.384 503.312 244.33 501.237 262.587 495.874C280.84 490.513 300.479 481.845 315.855 468.35L314.536 466.847C299.456 480.081 280.118 488.64 262.023 493.955C243.932 499.269 227.159 501.317 217.275 501.576L217.327 503.575ZM315.825 468.375C327.233 459.123 352.985 434.507 364.552 410.078L362.745 409.222C351.371 433.241 325.901 457.628 314.566 466.822L315.825 468.375ZM364.575 410.028C367.898 401.868 372.271 387.932 374.624 372.566C376.975 357.218 377.328 340.324 372.505 326.318L370.614 326.969C375.283 340.528 374.977 357.046 372.647 372.264C370.32 387.464 365.991 401.249 362.722 409.273L364.575 410.028ZM372.519 326.365C367.34 308.547 345.307 271.727 298.493 266.658L298.278 268.646C344.019 273.6 365.56 309.589 370.599 326.923L372.519 326.365ZM391.499 160.157C392.017 149.331 386.218 137.49 375.712 126.123C365.186 114.735 349.832 103.704 330.962 94.4759L330.083 96.2726C348.789 105.421 363.924 116.316 374.243 127.481C384.582 138.667 389.983 150.004 389.501 160.061L391.499 160.157ZM330.872 94.4372C319.597 90.2353 288.788 81.1272 255.459 78.1945L255.283 80.1868C288.403 83.1011 319.035 92.1603 330.173 96.3113L330.872 94.4372ZM244.504 81.3075C244.755 72.5908 243.408 59.0348 238.54 46.6277C233.673 34.2223 225.215 22.8049 211.152 18.7163L210.594 20.6368C223.824 24.4834 231.929 35.2533 236.678 47.3582C241.427 59.4615 242.75 72.7391 242.505 81.2501L244.504 81.3075ZM211.237 18.7451C199.036 13.9802 168.178 8.6791 142.099 25.6247L143.188 27.3018C168.529 10.836 198.649 15.976 210.509 20.608L211.237 18.7451ZM142.098 25.625C133.923 30.9438 119.838 40.4855 105.718 53.1648C91.6076 65.8361 77.4061 81.6908 69.0572 99.6512L70.8708 100.494C79.0579 82.882 93.0383 67.2394 107.054 54.6529C121.062 42.0745 135.048 32.5978 143.189 27.3014L142.098 25.625ZM69.0572 99.6512C52.5064 135.256 45.8203 159.266 46.221 177.88L48.2205 177.837C47.8301 159.699 54.3495 136.035 70.8708 100.494L69.0572 99.6512ZM47.9628 178.529C56.4275 169.157 70.6864 154.622 85.931 141.499C101.217 128.339 117.349 116.728 129.583 113.037L129.005 111.123C116.321 114.949 99.9033 126.831 84.6262 139.983C69.3075 153.17 54.989 167.766 46.4786 177.188L47.9628 178.529ZM129.724 112.983C143.23 106.548 175.801 92.5692 198.218 88.0013L197.819 86.0415C175.145 90.6617 142.387 104.734 128.864 111.177L129.724 112.983ZM198.144 88.0135L243.63 82.2709L243.38 80.2867L197.893 86.0293L198.144 88.0135ZM25.4777 267.441C23.9853 274.357 22.099 285.864 21.2796 297.955C20.4621 310.018 20.697 322.785 23.52 332.153L25.435 331.576C22.7205 322.568 22.461 310.102 23.275 298.09C24.0872 286.105 25.9585 274.694 27.4327 267.863L25.4777 267.441ZM23.5315 332.188C24.9598 336.358 27.9664 342.967 32.3691 349.335C36.7642 355.691 42.6178 361.904 49.775 365.143L50.5995 363.321C43.9129 360.295 38.3126 354.414 34.0141 348.197C29.7233 341.992 26.7968 335.549 25.4235 331.54L23.5315 332.188ZM50.9014 364.932L80.072 335.175L78.6438 333.775L49.4731 363.532L50.9014 364.932ZM79.9514 335.279C85.1258 331.464 93.3569 325.739 101.223 320.973C105.157 318.59 108.982 316.457 112.277 314.923C115.623 313.366 118.266 312.504 119.9 312.504V310.504C117.777 310.504 114.771 311.557 111.433 313.11C108.045 314.687 104.15 316.861 100.186 319.263C92.2553 324.068 83.9728 329.829 78.7644 333.67L79.9514 335.279ZM120.177 312.465C125.559 310.915 139.911 307.698 154.044 307.283L153.986 305.284C139.641 305.705 125.118 308.961 119.624 310.543L120.177 312.465ZM154.015 307.284C154.419 307.284 154.782 307.127 155.077 306.932C155.377 306.734 155.666 306.457 155.944 306.121C156.498 305.449 157.088 304.44 157.692 303.021C158.902 300.176 160.237 295.52 161.43 288.172L159.455 287.852C158.275 295.121 156.973 299.601 155.851 302.238C155.289 303.559 154.789 304.378 154.401 304.848C154.208 305.082 154.062 305.206 153.974 305.264C153.88 305.326 153.899 305.284 154.015 305.284V307.284ZM160.053 287.091C151.814 290.571 132.488 297.998 117.818 299.547L118.028 301.536C133.022 299.952 152.59 292.414 160.832 288.933L160.053 287.091ZM117.818 299.547C103.037 301.107 86.1526 301.307 71.6698 298L71.2247 299.95C86.0114 303.326 103.143 303.107 118.028 301.536L117.818 299.547ZM71.7792 298.032C65.9033 295.964 56.6 291.921 47.8436 286.534C39.0524 281.125 30.9765 274.461 27.3496 267.205L25.5607 268.099C29.449 275.878 37.9361 282.787 46.7956 288.237C55.6899 293.709 65.1251 297.81 71.1152 299.918L71.7792 298.032ZM70.619 381.498C71.3833 382.628 72.4462 384.69 73.075 387.114C73.7044 389.54 73.8752 392.232 72.9797 394.691L74.8589 395.375C75.9411 392.404 75.6999 389.267 75.0109 386.612C74.3212 383.954 73.1592 381.683 72.2755 380.377L70.619 381.498ZM73.1605 395.684C75.6417 398.575 80.2267 402.393 85.9938 404.532C91.7905 406.682 98.8151 407.143 106.039 403.22L105.085 401.463C98.4654 405.057 92.0583 404.648 86.6894 402.657C81.2909 400.654 76.9763 397.059 74.6782 394.382L73.1605 395.684ZM106.117 403.174C112.443 398.955 126.817 387.036 133.654 373.023L131.856 372.146C125.245 385.698 111.206 397.376 105.007 401.51L106.117 403.174ZM133.64 373.05C137.196 366.285 142.404 355.498 146.479 345.109C148.516 339.915 150.279 334.799 151.408 330.324C152.527 325.889 153.064 321.938 152.525 319.145L150.561 319.525C151.011 321.852 150.58 325.431 149.469 329.834C148.368 334.196 146.639 339.225 144.617 344.378C140.576 354.683 135.401 365.401 131.87 372.119L133.64 373.05ZM151.599 318.337C142.021 317.804 118.855 320.975 102.372 337.955L103.808 339.348C119.759 322.915 142.277 319.822 151.488 320.334L151.599 318.337ZM102.377 337.95C97.7429 342.668 90.5993 350.447 84.2121 358.466C81.0185 362.476 78.0042 366.559 75.585 370.357C73.1758 374.14 71.3158 377.705 70.4844 380.667L72.41 381.208C73.1608 378.532 74.8936 375.166 77.272 371.432C79.6404 367.713 82.6086 363.69 85.7765 359.712C92.1123 351.757 99.208 344.031 103.803 339.352L102.377 337.95ZM154.839 470.775C160.977 461.842 174.819 437.93 181.187 413.557L179.252 413.052C172.962 437.126 159.249 460.825 153.191 469.642L154.839 470.775ZM181.183 413.57L189.094 384.857L187.166 384.326L179.255 413.039L181.183 413.57ZM187.13 384.592V392.423H189.13V384.592H187.13ZM188.13 393.423H199.502V391.423H188.13V393.423ZM200.497 392.331C200.011 387.019 199.812 372.573 202.952 357.651L200.995 357.239C197.807 372.387 198.004 387.037 198.506 392.514L200.497 392.331ZM202.953 357.647C203.94 352.869 205.545 345.467 207.149 338.793C207.951 335.456 208.75 332.309 209.471 329.767C210.203 327.187 210.826 325.331 211.264 324.499L209.494 323.568C208.942 324.616 208.268 326.68 207.547 329.221C206.816 331.801 206.009 334.977 205.204 338.326C203.594 345.026 201.985 352.45 200.994 357.243L202.953 357.647ZM211.314 323.679C210.855 322.468 208.943 320.149 204.835 318.414L204.057 320.256C207.86 321.862 209.243 323.859 209.444 324.388L211.314 323.679ZM205.436 319.476C205.928 316.011 206.815 310.551 207.872 305.442C208.401 302.888 208.971 300.433 209.552 298.365C210.141 296.272 210.72 294.656 211.248 293.726L209.509 292.738C208.851 293.897 208.219 295.718 207.627 297.823C207.028 299.953 206.448 302.458 205.914 305.037C204.846 310.196 203.952 315.699 203.456 319.194L205.436 319.476ZM210.555 294.217C220.189 292.493 245.01 290.595 266.965 296.805L267.509 294.88C245.164 288.561 220.016 290.492 210.203 292.248L210.555 294.217ZM266.911 296.788C270.887 298.159 277.477 300.977 284.245 304.953C291.023 308.936 297.906 314.037 302.542 319.952L304.117 318.718C299.26 312.521 292.135 307.269 285.258 303.229C278.372 299.183 271.662 296.311 267.563 294.897L266.911 296.788ZM302.46 319.829C306.379 326.725 314.196 344.54 314.196 360.577H316.196C316.196 344.039 308.191 325.867 304.199 318.841L302.46 319.829ZM314.196 360.545C314.032 365.566 313.515 373.784 312.497 382.095C311.476 390.433 309.963 398.76 307.84 404.058L309.696 404.802C311.924 399.241 313.46 390.688 314.482 382.338C315.508 373.961 316.029 365.682 316.195 360.61L314.196 360.545ZM307.875 403.981C305.735 408.239 302.302 414.94 298.962 421.2C295.607 427.486 292.383 433.253 290.648 435.696L292.279 436.854C294.103 434.285 297.39 428.393 300.726 422.141C304.076 415.864 307.516 409.148 309.662 404.879L307.875 403.981ZM290.63 435.722C287.791 440.006 282.306 446.86 275.128 453.417C267.945 459.978 259.127 466.185 249.625 469.257L250.24 471.16C260.118 467.967 269.182 461.558 276.477 454.894C283.777 448.225 289.368 441.245 292.297 436.828L290.63 435.722ZM249.547 469.286C233.878 475.834 192.833 485.021 154.394 469.283L153.636 471.134C192.722 487.137 234.343 477.808 250.318 471.131L249.547 469.286ZM169.485 151.702C179.707 150.222 195.434 147.872 209.4 145.63C216.382 144.51 222.929 143.415 228.128 142.47C233.293 141.531 237.211 140.725 238.874 140.176L238.247 138.277C236.746 138.773 232.984 139.554 227.77 140.502C222.591 141.444 216.06 142.536 209.083 143.656C195.131 145.895 179.414 148.244 169.199 149.722L169.485 151.702ZM238.804 140.197L249.187 137.586L248.7 135.647L238.317 138.257L238.804 140.197ZM247.981 136.346L234.631 183.853L236.557 184.394L249.906 136.887L247.981 136.346ZM235.84 185.093C236.776 184.856 237.794 184.768 238.671 184.93C239.533 185.09 240.189 185.472 240.585 186.128C240.993 186.804 241.235 187.952 240.865 189.865C240.496 191.775 239.535 194.342 237.683 197.74L239.439 198.697C241.343 195.204 242.406 192.434 242.829 190.245C243.251 188.06 243.055 186.35 242.297 185.094C241.527 183.819 240.29 183.196 239.035 182.964C237.794 182.734 236.473 182.869 235.349 183.154L235.84 185.093ZM238.561 197.219H232.628V199.219H238.561V197.219ZM231.654 197.992L214.844 270.035L216.791 270.489L233.601 198.446L231.654 197.992ZM215.807 271.262C223.864 271.35 237.112 270.509 250.74 267.705C264.343 264.905 278.459 260.123 288.139 252.244L286.877 250.693C277.572 258.266 263.835 262.968 250.336 265.746C236.862 268.519 223.757 269.348 215.828 269.262L215.807 271.262ZM335.985 202.674C337.158 196.038 337.419 186.029 336.7 176.181C335.983 166.352 334.278 156.52 331.432 150.296L329.613 151.128C332.305 157.015 333.992 166.552 334.706 176.326C335.418 186.081 335.149 195.911 334.015 202.326L335.985 202.674ZM331.424 150.279C328.455 144.099 320.228 133.438 307.412 123.594C294.575 113.734 277.07 104.644 255.507 101.692L255.235 103.674C276.39 106.569 293.576 115.489 306.194 125.18C318.832 134.887 326.822 145.318 329.621 151.145L331.424 150.279ZM255.389 101.683C245.786 101.508 229.817 102.032 213.07 104.171C196.344 106.307 178.741 110.064 165.932 116.404L166.819 118.197C179.324 112.007 196.66 108.282 213.324 106.155C229.967 104.03 245.839 103.51 255.353 103.683L255.389 101.683ZM165.964 116.389C158.035 119.965 145.452 126.032 133.46 132.621C121.509 139.187 110.009 146.341 104.354 152.099L105.781 153.501C111.201 147.982 122.445 140.954 134.423 134.374C146.361 127.815 158.895 121.771 166.787 118.212L165.964 116.389ZM104.468 152C95.3375 158.836 72.2905 179.055 52.843 205.456L54.4533 206.643C73.7683 180.421 96.6692 160.337 105.667 153.601L104.468 152ZM52.8228 205.485L46.3953 214.882L48.0461 216.011L54.4736 206.614L52.8228 205.485ZM46.2229 215.512C46.6421 221.886 48.6209 232.132 53.1939 242.273C57.7664 252.414 64.9754 262.542 75.9112 268.529L76.8717 266.775C66.4485 261.068 59.4843 251.358 55.0171 241.451C50.5505 231.546 48.6234 221.536 48.2186 215.381L46.2229 215.512ZM75.8972 268.521C80.2572 271 88.6078 274.741 98.3546 277.574C108.094 280.404 119.324 282.356 129.411 281.174L129.178 279.188C119.47 280.325 108.534 278.449 98.9128 275.653C89.2993 272.859 81.0955 269.176 76.8857 266.783L75.8972 268.521ZM164.371 267.925L179.204 215.72L177.28 215.173L162.447 267.379L164.371 267.925ZM179.169 215.82C180.697 212.026 180.592 206.555 175.278 202.732C170.104 199.009 160.17 197.011 142.514 199.315L142.773 201.299C160.32 199.009 169.586 201.1 174.11 204.355C178.495 207.51 178.588 211.907 177.314 215.073L179.169 215.82ZM143.643 200.307C143.643 198.046 144.077 194.737 145.325 192.139C145.945 190.847 146.739 189.789 147.722 189.101C148.684 188.428 149.884 188.068 151.426 188.249L151.66 186.262C149.643 186.026 147.95 186.501 146.576 187.462C145.223 188.409 144.237 189.785 143.522 191.273C142.1 194.235 141.643 197.87 141.643 200.307H143.643ZM151.543 188.256H184.175V186.256H151.543V188.256ZM185.145 187.499C185.914 184.429 186.294 179.746 184.83 175.716C184.091 173.682 182.872 171.789 180.975 170.38C179.075 168.969 176.564 168.094 173.331 167.984L173.263 169.983C176.162 170.082 178.262 170.856 179.782 171.986C181.305 173.117 182.317 174.657 182.95 176.399C184.23 179.922 183.918 184.166 183.205 187.012L185.145 187.499ZM173.297 167.984H163.409V169.984H173.297V167.984ZM164.403 169.095C164.729 166.175 165.414 161.775 166.402 158.066C166.898 156.206 167.457 154.568 168.063 153.388C168.366 152.797 168.659 152.362 168.931 152.076C169.206 151.786 169.393 151.715 169.486 151.701L169.198 149.722C168.5 149.824 167.929 150.226 167.48 150.699C167.028 151.175 166.633 151.793 166.283 152.476C165.582 153.843 164.979 155.639 164.47 157.551C163.448 161.388 162.748 165.894 162.415 168.873L164.403 169.095ZM172.413 522.628L171.923 523.555L173.692 524.49L174.182 523.563L172.413 522.628ZM171.923 523.555C162.537 541.315 154.477 556.547 143.546 567.678C132.672 578.749 118.927 585.784 98.0872 587.007L98.2044 589.003C119.518 587.753 133.737 580.519 144.973 569.079C156.15 557.698 164.344 542.176 173.692 524.49L171.923 523.555ZM27.7626 545.497C37.9899 560.977 58.0103 591.362 98.2044 589.003L98.0872 587.007C59.1486 589.292 39.7082 559.949 29.4313 544.394L27.7626 545.497ZM298.748 268.584C302.038 267.302 306.044 266.045 310.626 264.609L310.028 262.701C305.467 264.13 301.389 265.408 298.022 266.72L298.748 268.584ZM310.626 264.609C325.07 260.082 344.938 253.86 364.239 239.746L363.058 238.132C344.052 252.03 324.472 258.173 310.028 262.701L310.626 264.609ZM364.239 239.746C376.544 230.748 383.065 216.884 386.641 202.685C390.217 188.485 390.878 173.816 391.363 163.093L389.366 163.002C388.879 173.747 388.221 188.221 384.701 202.197C381.181 216.176 374.83 229.523 363.058 238.132L364.239 239.746ZM389.501 160.061C389.456 161.004 389.412 161.985 389.366 162.999L391.364 163.089C391.41 162.075 391.454 161.097 391.499 160.157L389.501 160.061ZM389.366 162.988L389.366 162.991L391.363 163.104L391.363 163.1L389.366 162.988ZM29.4318 544.395L29.4281 544.39L27.7583 545.49L27.762 545.496L29.4318 544.395ZM29.4275 544.389C28.6645 543.234 27.9497 542.152 27.2828 541.169L25.6275 542.291C26.2864 543.263 26.9941 544.334 27.7588 545.491L29.4275 544.389ZM162.997 266.741C158.883 268.602 155.936 270.262 153.343 271.723L154.324 273.465C156.911 272.009 159.793 270.386 163.821 268.563L162.997 266.741ZM153.343 271.723C150.23 273.475 147.66 274.921 144.144 276.142C140.625 277.365 136.122 278.374 129.178 279.188L129.411 281.174C136.44 280.351 141.098 279.318 144.8 278.032C148.505 276.744 151.218 275.215 154.324 273.465L153.343 271.723ZM334.026 202.276C333.392 205.025 331.754 208.106 329.36 211.399C326.974 214.681 323.882 218.114 320.412 221.566C313.47 228.472 305.092 235.379 297.996 241.229L299.268 242.772C306.35 236.935 314.802 229.968 321.823 222.984C325.334 219.491 328.506 215.974 330.978 212.575C333.442 209.185 335.254 205.851 335.974 202.724L334.026 202.276ZM288.19 252.199C290.885 249.684 294.794 246.461 299.267 242.773L297.995 241.23C293.542 244.901 289.576 248.17 286.826 250.737L288.19 252.199ZM299.285 242.758L299.286 242.757L297.979 241.244L297.978 241.245L299.285 242.758Z" fill="white" mask="url(#path-1-inside-1_12_3)"/>
</svg>
